<svg width="80" height="87" viewBox="0 0 80 87" fill="none" xmlns="http://www.w3.org/2000/svg">
<path d="M20.6969 10.5199L16.8041 9.10063C16.3012 8.9141 15.8308 8.92221 15.4253 9.08441L1.74371 14.5911C2.14922 14.4289 2.61958 14.4208 3.1224 14.6073L7.01523 16.0266C7.51806 16.2131 7.98842 16.205 8.39393 16.0428L22.0756 10.5361C21.6701 10.6983 21.1997 10.7064 20.6969 10.5199Z" fill="#0C100F" stroke="#0C100F" stroke-width="0.811003" stroke-linecap="round" stroke-linejoin="round"/>
<path d="M52.9747 70.445L39.2931 75.9517C38.4983 76.268 37.9712 77.1926 37.9793 78.4577L38.0117 83.4454C38.0117 84.7187 37.4927 85.6351 36.706 85.9514L50.3876 80.4447C51.1824 80.1284 51.7015 79.2038 51.6933 77.9387L51.6609 72.951C51.6609 71.6859 52.1799 70.7613 52.9747 70.445Z" fill="#0C100F" stroke="#0C100F" stroke-width="0.811003" stroke-linecap="round" stroke-linejoin="round"/>
<path d="M62.2121 61.8809L48.5305 67.3876C47.7357 67.7039 47.2086 68.6285 47.2167 69.8936L47.2491 74.8813C47.2491 76.1546 46.7301 77.071 45.9434 77.3873L59.625 71.8806C60.4117 71.5643 60.9389 70.6398 60.9307 69.3746L60.8983 64.3869C60.8983 63.1218 61.4174 62.1972 62.2121 61.8809Z" fill="#0C100F" stroke="#0C100F" stroke-width="0.811003" stroke-linecap="round" stroke-linejoin="round"/>
<path d="M48.6279 20.6897L44.7351 19.2705C43.2428 18.7271 42.0182 16.7239 42.002 14.8019L41.9696 9.81419C41.9615 7.90022 40.7287 5.88893 39.2365 5.34556L32.6349 2.94499L26.0333 0.54442C25.5305 0.357889 25.0601 0.365999 24.6546 0.528199L10.973 6.03491C11.3785 5.87271 11.8489 5.8646 12.3517 6.05113L18.9533 8.4517L25.5548 10.8523C27.0471 11.3956 28.2717 13.4069 28.2879 15.3209L28.3204 20.3086C28.3285 22.2225 29.5612 24.2338 31.0534 24.7772L34.9463 26.1965C35.4491 26.383 35.9195 26.3749 36.325 26.2127L50.0066 20.706C49.6011 20.8682 49.1307 20.8763 48.6279 20.6897Z" fill="#0C100F" stroke="#0C100F" stroke-width="0.811003" stroke-linecap="round" stroke-linejoin="round"/>
<path d="M71.4494 53.325L57.7678 58.8317C56.973 59.148 56.4459 60.0725 56.454 61.3377L56.4865 66.3253C56.4865 67.5986 55.9674 68.515 55.1807 68.8313L68.8623 63.3246C69.649 63.0083 70.1762 62.0838 70.1681 60.8186L70.1356 55.8309C70.1356 54.5658 70.6547 53.6412 71.4494 53.325Z" fill="#0C100F" stroke="#0C100F" stroke-width="0.811003" stroke-linecap="round" stroke-linejoin="round"/>
<path d="M79.3487 43.7875L79.2919 35.3207C79.2838 33.4067 78.0511 31.3954 76.5588 30.852L72.666 29.4328C71.1737 28.8894 69.9491 26.8862 69.9329 24.9642L69.9005 19.9765C69.8924 18.0625 68.6596 16.0512 67.1674 15.5078L60.5658 13.1073L53.9642 10.7067C53.4614 10.5202 52.9911 10.5283 52.5856 10.6905L38.9039 16.1972C39.3094 16.035 39.7798 16.0269 40.2826 16.2134L46.8842 18.614L53.4858 21.0146C54.978 21.5579 56.2026 23.5692 56.2188 25.4832L56.2513 30.4709C56.2594 32.3848 57.4921 34.3961 58.9844 34.9395L62.8772 36.3587C64.3694 36.9021 65.594 38.9134 65.6103 40.8274L65.667 49.2943L65.7238 57.7611C65.7238 59.0344 65.2048 59.9508 64.4181 60.2671L78.0997 54.7604C78.8864 54.4441 79.4135 53.5196 79.4054 52.2544L79.3487 43.7875Z" fill="#0C100F" stroke="#0C100F" stroke-width="0.811003" stroke-linecap="round" stroke-linejoin="round"/>
<path d="M53.4938 21.0225C54.9861 21.5659 56.2107 23.5772 56.2269 25.4911L56.2594 30.4788C56.2675 32.3928 57.5002 34.4041 58.9924 34.9474L62.8852 36.3667C64.3775 36.9101 65.6021 38.9214 65.6183 40.8353L65.6751 49.3022L65.7319 57.7691C65.74 59.683 64.5397 60.8022 63.0393 60.2589L59.1465 58.8396C57.6543 58.2962 56.4459 59.4235 56.454 61.3294L56.4864 66.3171C56.4945 68.231 55.2943 69.3502 53.7939 68.8068L49.9011 67.3876C48.4088 66.8442 47.2004 67.9715 47.2085 69.8774L47.241 74.865C47.2491 76.779 46.0488 77.8982 44.5485 77.3548L40.6556 75.9355C39.1634 75.3922 37.955 76.5195 37.9631 78.4253L37.9955 83.413C38.0037 85.327 36.8034 86.4462 35.303 85.9028L31.4102 84.4835C29.918 83.9402 28.6933 81.937 28.6771 80.0149L28.6447 75.0272C28.6366 73.1133 27.4038 71.102 25.9116 70.5586L22.0188 69.1393C20.5265 68.596 19.3019 66.5928 19.2857 64.6707L19.2533 59.683C19.2452 57.7691 18.0124 55.7578 16.5283 55.2225L12.6355 53.8033C11.1432 53.2599 9.91862 51.2567 9.9024 49.3346L9.86995 44.347C9.86184 42.433 8.62913 40.4217 7.14499 39.8865L3.25216 38.4672C1.75992 37.9238 0.535306 35.9206 0.519086 33.9986L0.46231 25.5317L0.405558 17.0648C0.397448 15.1509 1.60582 14.0317 3.09807 14.575L6.9909 15.9943C8.48315 16.5377 9.69154 15.4185 9.67532 13.4964L9.64287 8.50874C9.63476 6.59477 10.8432 5.47559 12.3354 6.01896L18.937 8.41953L25.5385 10.8201C27.0308 11.3635 28.2554 13.3748 28.2716 15.2887L28.3041 20.2764C28.3122 22.1904 29.5449 24.2017 31.0371 24.745L34.9299 26.1643C36.4222 26.7077 37.6306 25.5885 37.6225 23.6745L37.59 18.6868C37.5819 16.7729 38.7903 15.6537 40.2826 16.1971L46.8842 18.5976L53.4857 20.9982L53.4938 21.0225Z" fill="#FFEFE8" stroke="#0C100F" stroke-width="0.811003" stroke-linecap="round" stroke-linejoin="round"/>
</svg>
