<svg width="120" height="107" viewBox="0 0 120 107" fill="none" xmlns="http://www.w3.org/2000/svg">
<path d="M88.7135 14.2403C87.0067 12.1206 83.421 9.94579 80.7438 9.42274L35.3344 0.461991C32.6572 -0.0679454 29.3193 1.41175 27.9084 3.74485L1.26017 47.8122C-0.150698 50.1453 0.0970493 53.786 1.80386 55.9126L30.8334 91.969C32.5402 94.0887 36.1259 96.2635 38.8031 96.7866L84.2124 105.747C86.8897 106.277 90.2276 104.798 91.6385 102.464L118.287 58.3971C119.698 56.064 119.45 52.4233 117.743 50.2967L88.7135 14.2403Z" fill="#991DFF" stroke="#991DFF" stroke-width="0.688229" stroke-linecap="round" stroke-linejoin="round"/>
<path d="M36.5044 91.5836C35.0935 93.9167 32.5402 94.0887 30.8334 91.9621L1.80386 55.9058C0.0970493 53.786 -0.150698 50.1384 1.26017 47.8053L27.9084 3.73798C29.3193 1.40488 31.8726 1.23282 33.5794 3.35945L62.609 39.4158C64.3158 41.5355 64.5635 45.1832 63.1526 47.5163L36.5044 91.5836Z" fill="#991DFF" stroke="#991DFF" stroke-width="0.688229" stroke-miterlimit="10"/>
<path d="M36.5044 91.5836C35.0935 93.9167 36.1258 96.2567 38.803 96.7798L84.2124 105.74C86.8896 106.27 90.2276 104.791 91.6384 102.458L118.287 58.3903C119.698 56.0572 118.665 53.7172 115.988 53.1942L70.5786 44.2334C67.9014 43.7035 64.5635 45.1832 63.1526 47.5163L36.5044 91.5836Z" fill="#EBE9E9" stroke="#991DFF" stroke-width="0.688229" stroke-linecap="round" stroke-linejoin="round"/>
<path d="M59.0508 71.4322L61.9001 71.9965L63.8203 68.8307L65.3274 69.1266L63.4073 72.2925L66.2772 72.8568L65.3274 74.4191L62.4575 73.8547L60.5374 77.0206L59.0302 76.7247L60.9503 73.5588L58.101 72.9945L59.0508 71.4322Z" fill="#991DFF"/>
<path d="M72.7878 72.3957L70.5442 71.9552L71.3976 70.5512C72.6433 70.7439 74.0197 70.4755 75.059 69.1403L76.7795 69.4776L70.2414 80.2484L68.2593 79.8561L72.7878 72.3957Z" fill="#991DFF"/>
<path d="M73.1939 78.3007L75.3067 78.7205L73.9303 80.9848L71.8174 80.565L73.1939 78.3007Z" fill="#991DFF"/>
<path d="M80.5717 79.684L76.0018 78.7824L77.3921 76.4906L85.6577 71.1844L87.6536 71.5767L83.5311 78.3695L85.0383 78.6654L84.006 80.3653L82.4987 80.0694L81.0879 82.3956L79.1608 82.0171L80.5717 79.6909V79.684ZM78.624 77.3922L81.604 77.9772L84.123 73.8272H84.0954L78.6516 77.344L78.624 77.3922Z" fill="#991DFF"/>
<path d="M93.1939 74.887L93.2145 74.8526L88.2937 73.8822L89.4017 72.0584L96.4629 73.4555L95.403 75.2036C92.4368 76.8003 88.8993 79.5877 86.401 83.4417L84.2606 83.0219C86.7795 79.1128 90.6818 76.2635 93.2007 74.8939L93.1939 74.887Z" fill="#991DFF"/>
<path d="M33.5794 3.35946C31.8726 1.23971 32.6572 -0.0679228 35.3344 0.462014L80.7438 9.42276C83.421 9.9527 87.0067 12.1206 88.7135 14.2404L117.743 50.2967C119.45 52.4165 118.665 53.7241 115.988 53.1942L70.5786 44.2334C67.9014 43.7035 64.3158 41.5355 62.609 39.4158L33.5794 3.35946Z" fill="#FF4B01" stroke="#991DFF" stroke-width="0.688229" stroke-linecap="round" stroke-linejoin="round"/>
<path d="M79.7733 20.2555C70.1932 14.261 60.5786 12.3478 58.3075 15.9747C56.0363 19.6086 61.9619 27.4062 71.549 33.4007C81.1291 39.3952 90.7437 41.3085 93.0149 37.6815C95.286 34.0476 89.3604 26.25 79.7733 20.2555ZM87.0548 34.2747L74.2262 31.7421C73.4692 31.5907 72.4574 30.9781 71.9757 30.3794L63.7788 20.1936C63.2971 19.5948 63.5173 19.2232 64.2744 19.3746L77.103 21.9073C77.8601 22.0587 78.8717 22.6712 79.3535 23.27L87.5503 33.4558C88.0321 34.0545 87.8118 34.4262 87.0548 34.2747Z" fill="#991DFF"/>
</svg>
