<svg width="114" height="98" viewBox="0 0 114 98" fill="none" xmlns="http://www.w3.org/2000/svg">
<path d="M53.0202 0.484298C50.3361 0.0231839 46.2068 0.759589 43.853 2.12917L3.83934 25.4051C1.4856 26.7747 -0.0491643 30.0919 0.432596 32.776L9.53786 83.4573C10.0196 86.1413 12.6142 88.7153 15.2983 89.1764L60.9073 97.0635C63.5914 97.5247 67.7208 96.7882 70.0745 95.4187L110.088 72.1428C112.442 70.7732 113.977 67.4559 113.495 64.7718L104.39 14.0906C103.908 11.4065 101.313 8.83251 98.6292 8.3714L53.0202 0.484298Z" fill="#FF4B01" stroke="#FF4B01" stroke-width="0.688229" stroke-linecap="round" stroke-linejoin="round"/>
<path d="M64.9197 93.0372C65.4015 95.7213 63.5983 97.5314 60.9142 97.0703L15.3052 89.1832C12.6211 88.722 10.0265 86.1412 9.54475 83.464L0.439485 32.7828C-0.042276 30.0987 1.76089 28.2886 4.44498 28.7497L50.0539 36.6368C52.738 37.098 55.3326 39.6788 55.8144 42.356L64.9197 93.0372Z" fill="#EBE9E9" stroke="#FF4B01" stroke-width="0.688229" stroke-linecap="round" stroke-linejoin="round"/>
<path d="M64.9195 93.0373C65.4013 95.7214 67.7206 96.7951 70.0812 95.4255L110.095 72.1496C112.449 70.78 113.983 67.4627 113.502 64.7786L104.396 14.0974C103.915 11.4133 101.595 10.3397 99.2346 11.7093L59.2209 34.9852C56.8672 36.3548 55.3324 39.672 55.8142 42.3561L64.9195 93.0373Z" fill="#EBE9E9" stroke="#FF4B01" stroke-width="0.688229" stroke-linecap="round" stroke-linejoin="round"/>
<path d="M79.3511 64.3395C79.4762 64.0596 79.6812 63.8245 79.921 63.686L102.044 50.9039C102.447 50.671 102.777 51.0777 102.566 51.5483L99.3412 58.7638C99.216 59.0438 99.0111 59.2789 98.7713 59.4174L76.6484 72.1996C76.2454 72.4324 75.9158 72.0257 76.126 71.5551L79.3511 64.3395Z" fill="#FF4B01"/>
<path d="M75.0682 46.8185C75.1933 46.5386 75.3983 46.3035 75.6381 46.1649L97.7609 33.3828C98.1639 33.15 98.4936 33.5567 98.2832 34.0273L95.0583 41.2428C94.9331 41.5228 94.7281 41.7579 94.4883 41.8964L72.3655 54.6785C71.9625 54.9113 71.6328 54.5046 71.8431 54.0341L75.0682 46.8185Z" fill="#FF4B01"/>
<path d="M95.9065 44.7127C95.6924 44.6288 95.4374 44.6595 95.1976 44.798L73.0748 57.5801C72.6718 57.8129 72.5979 58.4527 72.9577 58.5939L78.4756 60.758C78.6897 60.842 78.9447 60.8114 79.1844 60.6728L101.307 47.8907C101.71 47.6579 101.784 47.0181 101.424 46.8769L95.9065 44.7127Z" fill="#FF4B01"/>
<path d="M4.44498 28.743C1.76088 28.2819 1.49248 26.7746 3.84622 25.4051L43.8598 2.12914C46.2136 0.759564 50.343 0.0162762 53.0271 0.484272L98.636 8.37138C101.32 8.83249 101.589 10.3397 99.2348 11.7093L59.2211 34.9852C56.8674 36.3548 52.738 37.0981 50.0539 36.6301L4.44498 28.743Z" fill="#EBE9E9" stroke="#FF4B01" stroke-width="0.688229" stroke-linecap="round" stroke-linejoin="round"/>
</svg>
