<svg width="121" height="97" viewBox="0 0 121 97" fill="none" xmlns="http://www.w3.org/2000/svg">
<path d="M81.6942 3.59948C79.5607 1.81008 75.5414 0.344147 72.761 0.344147H25.4934C22.7129 0.344147 19.6572 2.48454 18.7005 5.09981L0.7171 54.5147C-0.232656 57.13 0.730861 60.7363 2.86437 62.5257L39.0722 92.911C41.2057 94.7004 45.2249 96.1663 48.0054 96.1663H95.273C98.0534 96.1663 101.109 94.0259 102.066 91.4107L120.049 41.9958C120.999 39.3805 120.035 35.7742 117.902 33.9917L81.6942 3.60636V3.59948Z" fill="#FF4B01" stroke="#FF4B01" stroke-width="0.688229" stroke-linecap="round" stroke-linejoin="round"/>
<path d="M44.6741 91.4038C43.7243 94.0191 41.1986 94.6935 39.065 92.9041L2.85726 62.5188C0.723751 60.7294 -0.239767 57.1231 0.70999 54.5147L18.6934 5.0998C19.6432 2.48453 22.169 1.81007 24.3025 3.59946L60.5103 33.9848C62.6438 35.7742 63.6073 39.3805 62.6575 41.9889L44.6741 91.4038Z" fill="#FF4B01" stroke="#FF4B01" stroke-width="0.688229" stroke-linecap="round" stroke-linejoin="round"/>
<path d="M18.3493 36.2009L20.3039 37.8389L21.6872 34.0536L22.7196 34.9208L21.3362 38.706L23.3046 40.3578L22.6232 42.2229L20.6549 40.5711L19.2716 44.3564L18.2392 43.4892L19.6226 39.704L17.668 38.066L18.3493 36.2009Z" fill="#EBE9E9"/>
<path d="M27.0416 44.3633C28.5351 40.2821 30.5997 38.6373 32.3272 40.0826C34.0822 41.5554 34.2198 45.0309 32.7195 49.1259C31.2329 53.1865 29.2095 54.8933 27.4408 53.4136C25.7065 51.9545 25.555 48.4239 27.0416 44.3633ZM31.3086 47.9421C32.2997 45.2374 32.5406 43.0832 31.5358 42.2436C30.5241 41.3971 29.4436 42.8217 28.4456 45.5471C27.4615 48.2518 27.2274 50.4129 28.2391 51.2663C29.2508 52.1128 30.3038 50.6882 31.3086 47.949V47.9421Z" fill="#EBE9E9"/>
<path d="M31.8317 53.1796L33.2838 54.3978L32.2928 57.1025L30.8406 55.8843L31.8317 53.1796Z" fill="#EBE9E9"/>
<path d="M36.8145 49.2567L35.2729 47.9629L35.8854 46.2836C36.7388 46.9305 37.6954 46.9718 38.4318 45.4508L39.6156 46.4419L34.915 59.298L33.5523 58.1555L36.8076 49.2498L36.8145 49.2567Z" fill="#EBE9E9"/>
<path d="M37.2205 56.4143C37.7986 54.8313 38.7483 54.0192 39.6843 54.1018L39.705 54.0467C39.292 53.0144 39.2301 51.9408 39.6774 50.7157C40.4689 48.5547 41.9211 48.1693 43.387 49.4012C44.8529 50.6331 45.3691 52.6427 44.5845 54.79C44.1509 55.9807 43.4834 56.5244 42.7057 56.5519L42.685 56.607C43.2563 57.7425 43.2907 59.353 42.7263 60.9015C41.7628 63.5305 40.0697 64.0054 38.535 62.7184C36.9934 61.4246 36.2776 58.9951 37.2136 56.428L37.2205 56.4143ZM41.3361 59.7453C41.811 58.4376 41.6389 57.1782 40.8061 56.4762C39.9734 55.7742 39.1337 56.194 38.6589 57.4948C38.2046 58.7405 38.4386 59.938 39.2645 60.6331C40.056 61.3007 40.8956 60.9566 41.343 59.7453H41.3361ZM43.1805 53.916C43.5453 52.9112 43.3732 51.8926 42.6713 51.3007C41.9555 50.7019 41.2948 51.0185 40.9231 52.0302C40.5584 53.0351 40.7167 54.0949 41.4256 54.6937C42.1276 55.2856 42.8089 54.9277 43.1736 53.9229L43.1805 53.916Z" fill="#EBE9E9"/>
<path d="M44.6741 91.4038C43.7243 94.0191 45.2178 96.1595 48.0051 96.1595H95.2727C98.0532 96.1595 101.109 94.0191 102.066 91.4038L120.049 41.9889C120.999 39.3737 119.505 37.2333 116.718 37.2333H69.4504C66.6699 37.2333 63.6142 39.3737 62.6575 41.9889L44.6741 91.4038Z" fill="#EBE9E9" stroke="#FF4B01" stroke-width="0.688229" stroke-linecap="round" stroke-linejoin="round"/>
<path d="M69.8014 68.6854L76.7181 79.6213L99.1613 53.916C99.1613 53.916 88.8034 62.6771 81.1984 68.7611C76.2432 72.7322 69.8014 68.6854 69.8014 68.6854Z" fill="#FF4B01"/>
<path d="M24.3094 3.59945C22.1759 1.81005 22.7127 0.344116 25.4931 0.344116H72.7607C75.5412 0.344116 79.5674 1.81005 81.694 3.59945L117.902 33.9848C120.035 35.7742 119.498 37.2401 116.718 37.2401H69.4504C66.6699 37.2401 62.6438 35.7742 60.5172 33.9848L24.3094 3.59945Z" fill="#EBE9E9" stroke="#FF4B01" stroke-width="0.688229" stroke-linecap="round" stroke-linejoin="round"/>
</svg>
