<svg width="93" height="96" viewBox="0 0 93 96" fill="none" xmlns="http://www.w3.org/2000/svg">
<path d="M76.5689 4.77549C75.6604 1.88492 72.4671 -0.0696487 69.4801 0.418994L19.439 8.64334C16.4521 9.13198 12.8733 11.7404 11.4899 14.4313L1.69644 33.5159C0.313098 36.2069 -0.0723101 40.7768 0.836153 43.6604L15.6813 90.7285C16.5897 93.619 19.7831 95.5736 22.77 95.085L72.8112 86.8606C75.7981 86.372 79.3769 83.7636 80.7602 81.0726L90.5537 61.988C91.9371 59.297 92.3225 54.7272 91.414 51.8435L76.5689 4.77549Z" fill="#991DFF" stroke="#991DFF" stroke-width="0.688229" stroke-linecap="round" stroke-linejoin="round"/>
<path d="M91.414 51.8434C92.3224 54.734 90.6225 57.4938 87.6356 57.9824L37.5944 66.2067C34.6075 66.6954 31.4141 64.7339 30.5057 61.8503L15.6606 14.7823C14.7521 11.8917 16.452 9.13189 19.4389 8.64324L69.4801 0.418904C72.467 -0.0697389 75.6604 1.89171 76.5689 4.7754L91.414 51.8434Z" fill="#EBE9E9" stroke="#991DFF" stroke-width="0.688229" stroke-linecap="round" stroke-linejoin="round"/>
<path d="M87.6425 57.9824C90.6294 57.4937 91.9439 59.2969 90.5606 61.9879L80.7671 81.0725C79.3837 83.7635 75.8118 86.3718 72.818 86.8605L22.7769 95.0848C19.7899 95.5735 18.4754 93.7703 19.8588 91.0793L29.6523 71.9947C31.0356 69.3038 34.6075 66.6954 37.6013 66.2067L87.6425 57.9824Z" fill="#FF4B01" stroke="#991DFF" stroke-width="0.688229" stroke-linecap="round" stroke-linejoin="round"/>
<path d="M74.4628 66.2962C74.979 66.2136 75.2061 66.5233 74.9652 66.9844L73.2722 70.2811C73.0313 70.749 72.4188 71.1964 71.9026 71.279L63.2653 72.6967C62.7492 72.7793 62.522 72.4696 62.7629 72.0085L64.456 68.7119C64.6968 68.2439 65.3094 67.7965 65.8255 67.714L74.4628 66.2962Z" fill="#991DFF"/>
<path d="M53.1056 84.2064C59.8427 81.8127 64.4283 77.4072 63.3479 74.3664C62.2675 71.3256 55.9302 70.801 49.1932 73.1947C42.4561 75.5883 37.8705 79.9938 38.9509 83.0346C40.0312 86.0754 46.3685 86.6001 53.1056 84.2064Z" fill="#991DFF"/>
<path d="M30.5126 61.8503C31.421 64.7408 31.0356 69.3038 29.6523 71.9948L19.8588 91.0794C18.4754 93.7703 16.5966 93.6121 15.6881 90.7284L0.842989 43.6604C-0.0654742 40.7698 0.319934 36.2068 1.70328 33.5159L11.4968 14.4313C12.8801 11.7403 14.759 11.8986 15.6674 14.7823L30.5126 61.8503Z" fill="#991DFF" stroke="#991DFF" stroke-width="0.688229" stroke-linecap="round" stroke-linejoin="round"/>
<path d="M27.7528 53.0891L30.7673 52.628C33.1623 52.2632 35.9634 50.1641 36.9888 47.9686L40.6296 40.171C42.185 36.84 46.1079 35.5461 49.3357 37.2942L53.3343 39.4621C57.7871 41.8709 61.772 39.7168 62.1987 34.672L63.3136 21.4925C63.9399 14.0665 68.3928 12.6487 73.1966 18.3472L76.3762 22.1187C79.4664 25.7801 82.9557 25.0712 82.9557 25.0712" stroke="#991DFF" stroke-width="0.688229" stroke-linecap="round" stroke-linejoin="round"/>
</svg>
