<svg width="128" height="128" viewBox="0 0 128 128" fill="none" xmlns="http://www.w3.org/2000/svg">
<path d="M84.6148 64.9887C84.7647 64.5021 84.6707 63.9439 84.3061 63.4324L82.4287 60.8145C81.7106 59.807 80.1877 59.3673 79.0494 59.828L33.3878 78.2067C32.2467 78.6635 30.7315 78.2183 30.0096 77.2135L23.6427 68.3292C23.2781 67.8177 23.1841 67.2594 23.3312 66.7689L19.334 79.9603C19.1842 80.447 19.2809 81.0091 19.6455 81.5206L26.0124 90.4049C26.7304 91.4124 28.2522 91.8588 29.3906 91.3981L75.0522 73.0194C76.1905 72.5587 77.7123 73.005 78.4315 74.0059L80.3089 76.6238C80.6735 77.1353 80.7675 77.6935 80.6176 78.1801L84.6148 64.9887Z" fill="#0C100F"/>
<path d="M104.586 60.461L108.583 47.2696C108.439 47.7402 108.074 48.1464 107.515 48.3698L102.466 50.4024L98.4684 63.5937L103.518 61.5612C104.077 61.3378 104.442 60.9316 104.586 60.461Z" fill="#FFEFE8" stroke="#0C100F" stroke-width="0.475845" stroke-linecap="round" stroke-linejoin="round"/>
<path d="M71.1435 46.1855C71.2934 45.6988 71.1994 45.1406 70.8376 44.633L68.9602 42.0151C68.2421 41.0076 66.7164 40.564 65.5781 41.0247L62.6036 42.2214C61.4691 42.6793 59.9501 42.2368 59.2282 41.2321L57.3507 38.6142C56.6327 37.6067 55.107 37.1631 53.9687 37.6238L50.998 38.8177C49.8597 39.2784 48.3379 38.8321 47.6187 37.8312L45.7413 35.2133C45.0233 34.2058 43.4976 33.7623 42.3631 34.2202L39.3886 35.4168C38.2503 35.8775 36.7285 35.4312 36.0093 34.4303L34.1319 31.8125C33.7701 31.3048 33.6761 30.7466 33.8221 30.2627L29.8249 43.4541C29.6789 43.938 29.7663 44.4951 30.1308 45.0066L32.0082 47.6245C32.7263 48.632 34.2492 49.0717 35.3875 48.611L38.362 47.4143C39.4965 46.9564 41.0183 47.4027 41.7402 48.4075L43.6177 51.0254C44.3357 52.0329 45.8586 52.4726 46.997 52.0119L49.9676 50.818C51.1087 50.3612 52.6305 50.8075 53.3497 51.8084L55.2271 54.4262C55.9451 55.4337 57.4681 55.8734 58.6025 55.4155L61.577 54.2189C62.7181 53.762 64.2399 54.2084 64.9591 55.2093L66.8365 57.8271C67.1983 58.3348 67.2895 58.8891 67.1424 59.3796L71.1396 46.1882L71.1435 46.1855Z" fill="#0C100F"/>
<path d="M100.894 70.6947C101.453 70.4713 101.818 70.0651 101.962 69.5945L105.959 56.4031C105.815 56.8737 105.45 57.2799 104.891 57.5033L101.916 58.7C101.353 58.9262 100.985 59.3285 100.844 59.803L96.8472 72.9944C96.9909 72.5238 97.3586 72.1215 97.9192 71.8914L100.894 70.6947Z" fill="#FFEFE8" stroke="#0C100F" stroke-width="0.475845" stroke-linecap="round" stroke-linejoin="round"/>
<path d="M98.2699 79.8277C98.8333 79.6015 99.1982 79.1953 99.342 78.7248L103.339 65.5334C103.198 66.0078 102.827 66.4129 102.267 66.6363L99.2926 67.833C98.7293 68.0592 98.3615 68.4615 98.2205 68.936L94.2233 82.1274C94.3671 81.6568 94.7321 81.2506 95.2954 81.0244L98.2699 79.8277Z" fill="#FFEFE8" stroke="#0C100F" stroke-width="0.475845" stroke-linecap="round" stroke-linejoin="round"/>
<path d="M95.6366 88.9559C96.1999 88.7297 96.5715 88.3246 96.7125 87.8502L100.71 74.6588C100.569 75.1332 100.197 75.5383 99.6338 75.7645L96.6593 76.9612C96.0998 77.1846 95.7349 77.5908 95.5911 78.0614L91.5939 91.2528C91.7377 90.7822 92.1026 90.376 92.6621 90.1526L95.6366 88.9559Z" fill="#FFEFE8" stroke="#0C100F" stroke-width="0.475845" stroke-linecap="round" stroke-linejoin="round"/>
<path d="M81.9909 74.122C82.1408 73.6354 82.0468 73.0771 81.6822 72.5656L79.8048 69.9477C79.4402 69.4362 79.349 68.8819 79.4989 68.3953L75.5017 81.5866C75.3557 82.0705 75.4458 82.6315 75.8076 83.1391L77.685 85.757C78.0496 86.2685 78.1436 86.8267 77.9937 87.3134L81.9909 74.122Z" fill="#0C100F"/>
<path d="M79.3642 83.2513C79.5102 82.7675 79.4201 82.2065 79.0583 81.6988L77.1809 79.081C76.8191 78.5733 76.7251 78.0151 76.8711 77.5312L72.8739 90.7226C72.7279 91.2065 72.8152 91.7636 73.1837 92.2724L75.0611 94.8902C75.4256 95.4017 75.5169 95.9561 75.367 96.4427L79.3642 83.2513Z" fill="#0C100F"/>
<path d="M94.0887 96.9834L98.0859 83.792C97.9449 84.2665 97.5733 84.6715 97.01 84.8977L79.8099 91.8212C78.6688 92.278 77.1498 91.8356 76.4306 90.8347L74.5532 88.2168C74.1887 87.7053 74.0946 87.1471 74.2445 86.6605L70.2473 99.8519C70.0975 100.338 70.1915 100.897 70.556 101.408L72.4334 104.026C73.1515 105.034 74.6744 105.473 75.8127 105.013L93.0128 98.0891C93.5761 97.8629 93.9477 97.4579 94.0887 96.9834Z" fill="#FFEFE8" stroke="#0C100F" stroke-width="0.475845" stroke-linecap="round" stroke-linejoin="round"/>
<path d="M77.7053 91.7787C77.196 91.5807 76.7372 91.2649 76.4279 90.8309L74.5505 88.213C74.1859 87.7015 74.0919 87.1433 74.2418 86.6567L70.2446 99.8481C70.0947 100.335 70.1887 100.893 70.5533 101.404L72.4307 104.022C72.7234 104.433 73.1557 104.744 73.6345 104.941L77.7025 91.7748L77.7053 91.7787Z" fill="#0C100F"/>
<path d="M108.274 45.7135C108.992 46.721 108.656 47.9132 107.515 48.3701L104.522 49.5739C103.391 50.0291 103.047 51.2097 103.756 52.2056L105.648 54.8428C106.366 55.8503 106.029 57.0426 104.888 57.4994L101.914 58.6961C100.772 59.1529 100.432 60.3479 101.151 61.3488L103.029 63.9666C103.747 64.9741 103.406 66.1691 102.265 66.626L99.2908 67.8226C98.1497 68.2794 97.8094 69.4745 98.5286 70.4753L100.406 73.0932C101.124 74.1007 100.778 75.288 99.6398 75.7486L96.6653 76.9453C95.5242 77.4021 95.1867 78.601 95.9058 79.6019L97.7832 82.2198C98.5013 83.2273 98.1554 84.4145 97.0171 84.8752L79.8171 91.7987C78.676 92.2555 77.1569 91.813 76.4378 90.8122L74.5603 88.1943C73.8423 87.1868 74.1865 85.989 75.3276 85.5322L78.3021 84.3355C79.4365 83.8776 79.7835 82.6837 79.0644 81.6828L77.1869 79.065C76.4689 78.0575 76.8186 76.8674 77.957 76.4067L80.9276 75.2128C82.0687 74.756 82.4101 73.5544 81.691 72.5535L79.8136 69.9356C79.0955 68.9281 79.4453 67.7381 80.5758 67.2829L83.5503 66.0863C84.6914 65.6295 85.0329 64.4278 84.3137 63.4269L82.4363 60.8091C81.7182 59.8016 80.1953 59.3619 79.057 59.8225L33.3954 78.2013C32.2543 78.6581 30.7391 78.2128 30.0172 77.2081L23.6503 68.3237C22.9322 67.3162 23.2687 66.124 24.4098 65.6672L70.0714 47.2885C71.2125 46.8316 71.554 45.63 70.8376 44.633L68.9601 42.0151C68.2421 41.0076 66.7164 40.564 65.5781 41.0247L62.6036 42.2214C61.4691 42.6793 59.95 42.2369 59.2281 41.2321L57.3507 38.6142C56.6327 37.6067 55.107 37.1632 53.9686 37.6238L50.998 38.8178C49.8569 39.2746 48.3379 38.8321 47.6187 37.8312L45.7413 35.2134C45.0232 34.2059 43.4975 33.7623 42.3631 34.2202L39.3886 35.4169C38.2475 35.8737 36.7284 35.4312 36.0093 34.4304L34.1318 31.8125C33.4138 30.805 33.7635 29.615 34.9019 29.1543L52.1019 22.2308C53.243 21.774 54.762 22.2165 55.4812 23.2173L57.3586 25.8352C58.0767 26.8427 59.593 27.2813 60.7341 26.8245L63.7086 25.6278C64.8497 25.171 66.3715 25.6173 67.0906 26.6182L68.9681 29.2361C69.6861 30.2436 71.2024 30.6822 72.3435 30.2254L75.318 29.0287C76.4591 28.5719 77.9809 29.0182 78.7001 30.0191L80.5775 32.637C81.2955 33.6445 82.8118 34.083 83.9529 33.6262L86.9274 32.4296C88.0685 31.9728 89.5837 32.418 90.3056 33.4227L92.183 36.0406C92.8956 37.0403 94.424 37.4878 95.5624 37.0271L98.5368 35.8305C99.6779 35.3736 101.193 35.8189 101.915 36.8236L108.282 45.708L108.274 45.7135Z" fill="#FFEFE8" stroke="#0C100F" stroke-width="0.475845" stroke-linecap="round" stroke-linejoin="round"/>
</svg>
