<svg width="80" height="89" viewBox="0 0 80 89" fill="none" xmlns="http://www.w3.org/2000/svg">
<path d="M12.7252 72.0279C12.3623 71.9261 11.9551 71.9925 11.5745 72.2581L9.49429 73.7054C9.11366 73.9709 8.70643 74.0373 8.34351 73.9355L20.6918 77.4674C21.0503 77.5692 21.4619 77.5028 21.8426 77.2372L23.9228 75.79C24.3034 75.5244 24.715 75.458 25.0735 75.5598L12.7252 72.0279Z" fill="#0C100F" stroke="#0C100F" stroke-width="0.442593" stroke-miterlimit="10"/>
<path d="M45.0566 8.25048L44.1847 5.82507C44.0121 5.33822 43.6757 5.02398 43.2818 4.9089L30.9335 1.37701C31.3274 1.48766 31.6638 1.80633 31.8364 2.29318L32.7083 4.71859C32.8809 5.20101 33.2128 5.51525 33.6067 5.63033L45.9551 9.16222C45.5612 9.05157 45.2292 8.73733 45.0566 8.25048Z" fill="#FFEFE8" stroke="#0C100F" stroke-width="0.442593" stroke-miterlimit="10"/>
<path d="M21.8691 80.1764C21.5062 80.0746 21.099 80.141 20.7184 80.4065L18.6382 81.8538C18.2531 82.1194 17.846 82.1902 17.483 82.0839L29.8314 85.6158C30.1943 85.7176 30.6059 85.6512 30.9865 85.3857L33.0667 83.9384C33.4473 83.6728 33.859 83.6065 34.2175 83.7083L21.8691 80.1764Z" fill="#0C100F" stroke="#0C100F" stroke-width="0.442593" stroke-miterlimit="10"/>
<path d="M57.0952 7.1307L56.2233 4.70529C56.0507 4.22286 55.7143 3.90862 55.3248 3.79355L42.9764 0.261658C43.3703 0.372306 43.7023 0.690973 43.8749 1.1734L44.7468 3.59881C44.9194 4.08123 45.2514 4.39547 45.6453 4.51055L57.9936 8.04244C57.5997 7.93179 57.2678 7.61755 57.0952 7.1307Z" fill="#FFEFE8" stroke="#0C100F" stroke-width="0.442593" stroke-miterlimit="10"/>
<path d="M33.9077 79.061C33.5448 78.9592 33.1332 79.0256 32.7525 79.2912L25.6932 84.1951C25.3126 84.4606 24.901 84.527 24.5425 84.4252L36.8908 87.9571C37.2537 88.0589 37.6609 87.9925 38.0416 87.727L45.1009 82.823C45.4859 82.5575 45.8975 82.4867 46.256 82.5929L33.9077 79.061Z" fill="#0C100F" stroke="#0C100F" stroke-width="0.442593" stroke-miterlimit="10"/>
<path d="M63.2914 7.05108C63.1187 6.56423 62.7824 6.24999 62.3885 6.13492L50.0402 2.60303C50.4341 2.71368 50.7704 3.03234 50.943 3.51919L53.8907 11.747C54.0633 12.2294 54.3997 12.5437 54.7892 12.6587L67.1375 16.1906C66.7436 16.08 66.4117 15.7613 66.239 15.2789L63.2914 7.05108Z" fill="#FFEFE8" stroke="#0C100F" stroke-width="0.442593" stroke-miterlimit="10"/>
<path d="M58.0245 10.9856C58.8211 10.4323 59.7462 10.7422 60.0781 11.6672L67.1906 31.5086C67.527 32.4425 67.1463 33.6552 66.3497 34.2084L64.2694 35.6557C63.4728 36.2089 63.0922 37.4216 63.4286 38.3467L66.3762 46.5744C66.7126 47.5083 66.332 48.721 65.5309 49.2743L63.4551 50.7171C62.654 51.2748 62.2734 52.4875 62.6097 53.4125L63.4817 55.8379C63.8136 56.7674 63.433 57.9801 62.6407 58.5289L55.5814 63.4328C54.7803 63.9905 54.3997 65.2032 54.736 66.1282L55.6079 68.5536C55.9399 69.483 55.5592 70.6957 54.767 71.2446L37.7493 83.0662C36.9527 83.6194 36.0276 83.3096 35.6957 82.3846L34.8238 79.9592C34.4919 79.0298 33.5668 78.7244 32.7657 79.282L25.7064 84.186C24.9097 84.7392 23.9847 84.4294 23.6528 83.5044L22.7808 81.079C22.4489 80.1495 21.5239 79.8441 20.7272 80.3974L18.647 81.8447C17.8459 82.4023 16.9209 82.0925 16.589 81.1586L13.6413 72.9308C13.3094 72.0014 12.3844 71.696 11.5877 72.2492L9.50748 73.6965C8.71081 74.2498 7.78578 73.9399 7.45384 73.0105L0.341401 53.1691C0.00945663 52.2396 0.390097 51.0269 1.18234 50.4781L3.2625 49.0308C4.05917 48.4776 4.43981 47.2649 4.10344 46.3399L1.15576 38.1121C0.819386 37.1782 1.20003 35.9655 2.00112 35.4123L4.08129 33.965C4.87795 33.4117 5.25859 32.199 4.92222 31.274L4.05033 28.8486C3.71838 27.9192 4.09903 26.7065 4.89127 26.1577L11.9506 21.2537C12.7517 20.6961 13.1323 19.4834 12.796 18.5583L11.9241 16.1329C11.5877 15.1991 11.9683 13.9864 12.765 13.4331L29.7827 1.61147C30.5793 1.05823 31.5044 1.36804 31.8363 2.29749L32.7082 4.7229C33.0401 5.65234 33.9652 5.95773 34.7663 5.40006L41.8256 0.496138C42.6223 -0.0571029 43.5473 0.252712 43.8792 1.17773L44.7511 3.60314C45.0831 4.53258 46.0081 4.83797 46.8092 4.2803L48.885 2.83745C49.6861 2.27979 50.611 2.5896 50.943 3.52347L53.8907 11.7513C54.2226 12.6807 55.1476 12.9861 55.9443 12.4329L58.0245 10.9856Z" fill="#FFEFE8" stroke="#0C100F" stroke-width="0.442593" stroke-miterlimit="10"/>
<path d="M54.7493 71.2578L37.7315 83.0795C37.3509 83.345 36.9393 83.4114 36.5808 83.3096L48.9292 86.8415C49.2921 86.9433 49.6993 86.8769 50.0799 86.6114L67.0975 74.7897L54.7493 71.2578Z" fill="#0C100F" stroke="#0C100F" stroke-width="0.442593" stroke-miterlimit="10"/>
<path d="M54.7229 66.1375L55.5948 68.5629C55.9267 69.4923 55.5461 70.705 54.7539 71.2538L67.1022 74.7857C67.8989 74.2325 68.2795 73.0198 67.9431 72.0948L67.0712 69.6693L54.7229 66.1375Z" fill="#FFEFE8" stroke="#0C100F" stroke-width="0.442593" stroke-miterlimit="10"/>
<path d="M66.3497 34.204L64.2695 35.6513C63.4728 36.2045 63.0922 37.4172 63.4286 38.3422L75.7769 41.8741C75.4449 40.9447 75.8256 39.732 76.6178 39.1831L78.698 37.7359L66.3497 34.204Z" fill="#0C100F" stroke="#0C100F" stroke-width="0.442593" stroke-miterlimit="10"/>
<path d="M72.4265 15.1989C72.2539 14.7165 71.9175 14.4022 71.528 14.2871L59.1797 10.7552C59.5736 10.8659 59.9056 11.1846 60.0782 11.667L67.1907 31.5084C67.527 32.4423 67.1464 33.655 66.3497 34.2082L78.6981 37.7401C79.4947 37.1869 79.8753 35.9742 79.5389 35.0403L72.4265 15.1989Z" fill="#FFEFE8" stroke="#0C100F" stroke-width="0.442593" stroke-miterlimit="10"/>
<path d="M62.632 58.538L55.5727 63.442C54.7716 63.9996 54.3954 65.2123 54.7273 66.1373L67.0757 69.6692C66.7437 68.7398 67.1243 67.5271 67.921 66.9738L74.9804 62.0699L62.632 58.538Z" fill="#0C100F" stroke="#0C100F" stroke-width="0.442593" stroke-miterlimit="10"/>
<path d="M65.5267 49.2743L63.4464 50.7171C62.6454 51.2748 62.2648 52.4875 62.6011 53.4125L74.9494 56.9444C74.6175 56.015 74.9981 54.8023 75.7948 54.249L77.8706 52.8062L65.5222 49.2743H65.5267Z" fill="#0C100F" stroke="#0C100F" stroke-width="0.442593" stroke-miterlimit="10"/>
<path d="M62.601 53.4169L63.4728 55.8423C63.8048 56.7718 63.4242 57.9845 62.6319 58.5333L74.9803 62.0652C75.7769 61.5119 76.1576 60.2992 75.8212 59.3742L74.9492 56.9488L62.601 53.4169Z" fill="#FFEFE8" stroke="#0C100F" stroke-width="0.442593" stroke-miterlimit="10"/>
<path d="M63.4242 38.3467L66.3718 46.5745C66.7082 47.5083 66.3276 48.7211 65.5265 49.2743L77.8749 52.8062C78.6759 52.2485 79.0565 51.0358 78.7202 50.1064L75.7725 41.8786L63.4242 38.3467Z" fill="#FFEFE8" stroke="#0C100F" stroke-width="0.442593" stroke-miterlimit="10"/>
<path d="M42.2683 40.0595L44.3485 45.8619L39.3649 49.323L34.3857 52.7796L29.4021 56.2407L25.8702 58.6927C25.0736 59.2459 24.6929 60.4586 25.0293 61.3836L25.9012 63.809C26.2331 64.7385 27.1582 65.0483 27.9548 64.4951L31.4867 62.0431L36.4703 58.582L37.9441 62.6981C38.2761 63.6276 39.2011 63.933 39.9978 63.3797L42.078 61.9324C42.8746 61.3792 43.2552 60.1665 42.9188 59.2415L41.445 55.1254L46.4286 51.6643L49.9605 49.2123C50.7572 48.6591 51.1334 47.442 50.8015 46.5125L49.3276 42.3964L47.8538 38.2803C47.5218 37.3508 46.5968 37.0455 45.8001 37.5987L42.2683 40.0507V40.0595Z" fill="#0C100F"/>
<path d="M25.2461 44.6317L26.7199 48.7478C27.0563 49.6817 27.9769 49.987 28.778 49.4338L32.3099 46.9818L37.289 43.5252L42.2726 40.0641L40.7988 35.948C40.4624 35.0141 39.5418 34.7087 38.7407 35.262L35.2089 37.7139L30.2297 41.1706L25.2461 44.6317Z" fill="#0C100F"/>
<path d="M25.4364 22.7499C24.6397 23.3031 24.2591 24.5158 24.5955 25.4408L26.0693 29.5569L21.0857 33.018L17.5538 35.47C16.7572 36.0232 16.3765 37.2359 16.7129 38.1698L18.1867 42.2859L19.6606 46.402C19.9925 47.3315 20.9175 47.6368 21.7142 47.0836L25.2461 44.6316L23.1659 38.8292L28.1495 35.3682L33.1286 31.9115L38.1122 28.4505L41.6441 25.9985C42.4408 25.4452 42.8214 24.2325 42.485 23.2987L41.6176 20.8777C41.2812 19.9438 40.3606 19.6384 39.5639 20.1917L36.0321 22.6436L31.0485 26.1047L29.5747 21.9886C29.2427 21.0592 28.3177 20.7538 27.521 21.307L25.4408 22.7543L25.4364 22.7499Z" fill="#0C100F"/>
</svg>
