<svg width="18" height="18" viewBox="0 0 18 18" fill="none" xmlns="http://www.w3.org/2000/svg">
<path d="M9.03953 1.3125C10.684 1.31249 11.9755 1.31249 12.9836 1.448C14.0162 1.58681 14.8354 1.87735 15.479 2.521C16.1227 3.16465 16.4131 3.98386 16.552 5.01636C16.6875 6.02455 16.6875 7.31601 16.6875 8.96047V9.03953C16.6875 10.684 16.6875 11.9755 16.552 12.9836C16.4131 14.0162 16.1227 14.8354 15.479 15.479C14.8354 16.1227 14.0162 16.4131 12.9836 16.552C11.9755 16.6875 10.684 16.6875 9.03953 16.6875H8.96047C7.31601 16.6875 6.02455 16.6875 5.01636 16.552C3.98386 16.4131 3.16465 16.1227 2.521 15.479C1.87735 14.8354 1.58681 14.0162 1.448 12.9836C1.31249 11.9755 1.31249 10.684 1.3125 9.03953V8.96047C1.31249 7.31601 1.31249 6.02455 1.448 5.01636C1.58681 3.98386 1.87735 3.16465 2.521 2.521C3.16465 1.87735 3.98386 1.58681 5.01636 1.448C6.02455 1.31249 7.31601 1.31249 8.96047 1.3125H9.03953ZM9 11.2412C8.58578 11.2412 8.25 11.577 8.25 11.9912V11.9985C8.25 12.4127 8.58578 12.7485 9 12.7485C9.41422 12.7485 9.75 12.4127 9.75 11.9985V11.9912C9.75 11.577 9.41422 11.2412 9 11.2412ZM9 5.25C8.58578 5.25 8.25 5.58579 8.25 6V9.375C8.25 9.78922 8.58578 10.125 9 10.125C9.41422 10.125 9.75 9.78922 9.75 9.375V6C9.75 5.58579 9.41422 5.25 9 5.25Z" fill="#4B5154"/>
</svg>
