<svg width="23" height="23" viewBox="0 0 23 23" fill="none" xmlns="http://www.w3.org/2000/svg">
<path d="M16.5782 4.25509C16.4443 4.12129 16.2625 4.04601 16.0733 4.0459C15.9312 4.0459 15.7937 4.08821 15.6772 4.16584L15.5684 4.25509L11.4218 8.39612L7.28358 4.25509C7.14971 4.12117 6.96809 4.04595 6.77874 4.0459C6.63675 4.04588 6.49911 4.08825 6.38267 4.16584L6.27389 4.25509L4.25545 6.27354C3.97673 6.55234 3.97674 7.00438 4.25545 7.28323L8.39369 11.4233L4.25545 15.5625C3.97665 15.8413 3.97675 16.2933 4.25545 16.5722L6.27389 18.5906C6.40779 18.7246 6.58937 18.7999 6.77874 18.7999C6.96805 18.7998 7.14971 18.7246 7.28358 18.5906L11.4218 14.4515L15.56 18.5897C15.8388 18.8684 16.2908 18.8692 16.5698 18.5906L18.5892 16.5731C18.723 16.4393 18.7982 16.2576 18.7983 16.0682C18.7983 15.8789 18.723 15.6973 18.5892 15.5635L14.45 11.4243L18.5947 7.28508C18.8736 7.00652 18.874 6.55444 18.5956 6.2754L16.5782 4.25509Z" fill="#E9E2DF"/>
</svg>
