<svg width="24" height="24" viewBox="0 0 24 24" fill="none" xmlns="http://www.w3.org/2000/svg">
<path fill-rule="evenodd" clip-rule="evenodd" d="M9.60204 5.44677C9.60204 5.44677 10.7146 5.21397 11.9999 5.21397C13.2852 5.21397 14.3978 5.44677 14.3978 5.44677L14.8428 4.52891C14.9367 4.33509 15.1435 4.22196 15.3546 4.25602C17.5007 4.60213 19.5007 5.75 19.5007 5.75C19.5007 5.75 21.9991 8.25 21.9991 17.0673C22.0001 17.2261 21.9262 17.3801 21.7983 17.4725C20.1579 18.6572 18.1656 19.4353 17.3618 19.7224C17.1488 19.7985 16.9155 19.7127 16.7941 19.5205L16.2316 18.6301C16.0776 18.3864 16.1576 18.0622 16.4068 17.9198L17.5823 17.2483L17.1068 16.8731C17.1068 16.8731 15.2048 18.0247 11.9999 18.0247C8.79501 18.0247 6.89306 16.8731 6.89306 16.8731L6.41758 17.2483L7.59299 17.9198C7.84225 18.0622 7.92224 18.3864 7.76826 18.6301L7.20576 19.5205C7.08431 19.7127 6.85099 19.7985 6.638 19.7224C5.83424 19.4353 3.8419 18.6572 2.20153 17.4725C2.07359 17.3801 1.99974 17.2261 2.00074 17.0673C2.00074 8.25 4.50073 5.75 4.50073 5.75C4.50073 5.75 6.50073 4.60187 8.64523 4.25602C8.85638 4.22196 9.06308 4.33509 9.15705 4.52891L9.60204 5.44677ZM17.2507 12.75C17.2507 13.8546 16.4672 14.75 15.5007 14.75C14.5342 14.75 13.7507 13.8546 13.7507 12.75C13.7507 11.6454 14.5342 10.75 15.5007 10.75C16.4672 10.75 17.2507 11.6454 17.2507 12.75ZM8.50073 14.75C9.46723 14.75 10.2507 13.8546 10.2507 12.75C10.2507 11.6454 9.46723 10.75 8.50073 10.75C7.53424 10.75 6.75073 11.6454 6.75073 12.75C6.75073 13.8546 7.53424 14.75 8.50073 14.75Z" fill="#E5E9EC"/>
</svg>
