<svg width="16" height="16" viewBox="0 0 16 16" fill="none" xmlns="http://www.w3.org/2000/svg">
<path fill-rule="evenodd" clip-rule="evenodd" d="M8.08015 0.798561C8.08095 1.24038 7.72343 1.5992 7.28159 1.6C5.80855 1.60265 4.76195 1.62357 3.96665 1.7523C3.19474 1.87724 2.74878 2.09106 2.42013 2.41971C2.06633 2.77352 1.84455 3.26445 1.72467 4.15609C1.6017 5.07076 1.6 6.28007 1.6 7.99976C1.6 9.71951 1.6017 10.9288 1.72467 11.8435C1.84455 12.7351 2.06632 13.2261 2.42013 13.5798C2.77393 13.9337 3.26486 14.1554 4.15651 14.2754C5.07117 14.3983 6.28048 14.4 8.00023 14.4C9.71991 14.4 10.9293 14.3983 11.8439 14.2754C12.7355 14.1554 13.2265 13.9337 13.5803 13.5798C13.909 13.2512 14.1227 12.8053 14.2477 12.0334C14.3764 11.2381 14.3973 10.1914 14.4 8.7184C14.4008 8.27656 14.7596 7.91904 15.2014 7.91984C15.6433 7.92064 16.0008 8.27944 16 8.72128C15.9973 10.1679 15.9798 11.3456 15.8271 12.289C15.6706 13.2558 15.3601 14.0628 14.7117 14.7113C14.011 15.4118 13.1262 15.7174 12.0571 15.861C11.0234 16 9.70623 16 8.05951 16H7.94095C6.29416 16 4.97701 16 3.94332 15.861C2.87425 15.7174 1.9894 15.4118 1.28876 14.7112C0.58812 14.0106 0.282672 13.1258 0.138936 12.0567C-3.16143e-05 11.023 -1.56567e-05 9.70583 3.43329e-07 8.05904V7.94056C-1.56567e-05 6.29374 -3.16024e-05 4.97658 0.138944 3.94289C0.282672 2.87383 0.588128 1.98898 1.28876 1.28834C1.9372 0.639905 2.74425 0.329337 3.711 0.172857C4.65437 0.0201612 5.83208 0.00260931 7.27871 1.3133e-06C7.72055 -0.000790686 8.07935 0.356737 8.08015 0.798561Z" fill="#9497A4"/>
<path d="M11.7019 0.0477532C12.4046 0.00651325 13.8045 -0.0537027 14.6415 0.0945212C14.9854 0.155425 15.2849 0.320809 15.5085 0.558985L15.5155 0.566497C15.7135 0.780345 15.8509 1.05187 15.9052 1.35857C16.0532 2.19534 15.9931 3.59497 15.9519 4.29771C15.8975 5.22543 14.7865 5.6056 14.158 4.97713L13.1733 3.99246L10.985 6.16412C10.6663 6.48032 10.1517 6.4784 9.83547 6.15973C9.51931 5.8411 9.52123 5.32646 9.83987 5.01025L12.0238 2.84297L11.0225 1.84168C10.3941 1.21326 10.7742 0.102201 11.7019 0.0477532Z" fill="#9497A4"/>
</svg>
