<svg width="90" height="110" viewBox="0 0 90 110" fill="none" xmlns="http://www.w3.org/2000/svg">
<path d="M5.96149 15.4726L14.3654 12.0881L14.6894 63.4934L6.28546 66.8828L5.96149 15.4726Z" fill="#FF4B01"/>
<path d="M10.3129 10.6127C10.0039 10.4981 9.71479 10.5031 9.46557 10.6027L1.0567 13.9872C1.30593 13.8875 1.59503 13.8826 1.90407 13.9972L5.96147 15.4726L14.3703 12.0881L10.3129 10.6127Z" fill="#FF4B01"/>
<path d="M20.0428 6.82446L11.6339 10.2089L11.6688 15.4128C11.6688 16.1904 11.3497 16.7586 10.8613 16.953L19.2701 13.5685C19.7586 13.3741 20.0826 12.8059 20.0777 12.0283L20.0428 6.82446Z" fill="#FF4B01"/>
<path d="M15.9854 5.34904C15.6763 5.2344 15.3872 5.23938 15.138 5.33907L6.72913 8.72355C6.97835 8.62386 7.26746 8.61888 7.5765 8.73352L11.6339 10.2089L20.0428 6.82446L15.9854 5.34904Z" fill="#FF4B01"/>
<path d="M77.2449 22.4509C77.24 21.2745 76.4823 20.0384 75.5651 19.7044L21.6677 0.0853705C21.3586 -0.0292732 21.0695 -0.0242885 20.8203 0.0754017L12.4114 3.45988C12.6607 3.36019 12.9497 3.35521 13.2588 3.46985L67.1563 23.0889C68.0734 23.4228 68.8261 24.654 68.8361 25.8353L68.871 31.0392L77.2798 27.6547L77.2449 22.4509Z" fill="#FF4B01"/>
<path d="M32.8629 99.7158L24.454 103.1C23.9705 103.295 23.6465 103.858 23.6515 104.636L23.6714 107.706C23.6714 108.484 23.3524 109.052 22.864 109.246L31.2728 105.862C31.7613 105.667 32.0853 105.099 32.0803 104.322L32.0604 101.251C32.0604 100.473 32.3794 99.9102 32.8629 99.7158Z" fill="#FF4B01"/>
<path d="M37.7228 93.8589L29.3139 97.2434L29.3488 102.447C29.3488 103.225 29.0298 103.793 28.5413 103.987L36.9502 100.603C37.4387 100.409 37.7627 99.8403 37.7577 99.0627L37.7228 93.8589Z" fill="#FF4B01"/>
<path d="M23.5917 95.1599L32.0005 91.7754L37.7227 93.8589L29.3139 97.2434L23.5917 95.1599Z" fill="#FF4B01"/>
<path d="M31.9507 84.4333L31.9158 79.2245C31.9108 78.0481 31.1532 76.817 30.236 76.483L20.4564 72.9241L12.0475 76.3086L21.8272 79.8675C22.7443 80.2015 23.497 81.4326 23.5069 82.609L23.5418 87.8178L23.5867 95.16L31.9956 91.7755L31.9507 84.4333Z" fill="#FF4B01"/>
<path d="M34.9913 91.9847L35.0262 97.1885C35.0312 98.3648 34.2885 99.0527 33.3713 98.7187L29.3139 97.2433L29.279 92.0345C29.274 90.8582 30.0117 90.1703 30.9339 90.5043L34.9913 91.9797V91.9847Z" fill="#FF4B01"/>
<path d="M43.4001 88.6003L34.9913 91.9848L35.0262 97.1887C35.0262 97.9662 34.7072 98.5345 34.2187 98.7289L42.6276 95.3444C43.116 95.15 43.44 94.5818 43.435 93.8042L43.4001 88.6003Z" fill="#FF4B01"/>
<path d="M39.3427 87.1198C39.0337 87.0051 38.7446 87.0101 38.4954 87.1098L30.0865 90.4943C30.3357 90.3946 30.6248 90.3896 30.9339 90.5043L34.9913 91.9797L43.4001 88.5952L39.3427 87.1198Z" fill="#FF4B01"/>
<path d="M45.0201 81.8613C44.7111 81.7466 44.4219 81.7516 44.1727 81.8513L35.7639 85.2358C36.0131 85.1361 36.3022 85.1311 36.6112 85.2457L69.2847 97.1388L77.6935 93.7543L45.0201 81.8613Z" fill="#FF4B01"/>
<path d="M77.6935 93.7544L69.2847 97.1389L69.3196 102.343C69.3196 103.12 69.0006 103.689 68.5121 103.883L76.9209 100.498C77.4094 100.304 77.7334 99.7358 77.7284 98.9582L77.6935 93.7544Z" fill="#FF4B01"/>
<path d="M70.0573 90.3896L78.4662 87.0051C78.7154 86.9054 79.0045 86.9004 79.3135 87.0151L70.9047 90.3995C70.5956 90.2849 70.3065 90.2899 70.0573 90.3896Z" fill="#FF4B01"/>
<path d="M70.9047 90.3996L79.3135 87.0151L83.3709 88.4905L74.9621 91.875L70.9047 90.3996Z" fill="#FF4B01"/>
<path d="M83.3709 88.4907L74.962 91.8752L74.9969 97.079C74.9969 97.8566 74.6779 98.4249 74.1895 98.6192L82.5983 95.2348C83.0868 95.0404 83.4108 94.4721 83.4058 93.6946L83.3709 88.4907Z" fill="#FF4B01"/>
<path d="M88.7841 41.3022C88.7791 40.1259 88.0215 38.8897 87.1043 38.5557L83.0469 37.0803L74.6381 40.4648L78.6955 41.9402C79.6126 42.2742 80.3653 43.5054 80.3752 44.6867L80.6743 91.8202C80.6743 92.5978 80.3553 93.166 79.8668 93.3604L88.2757 89.9759C88.7642 89.7815 89.0882 89.2133 89.0832 88.4357L88.7841 41.3022Z" fill="#FF4B01"/>
<path d="M83.012 31.8767C83.007 30.7003 82.2494 29.4642 81.3322 29.1302L77.2749 27.6548L68.866 31.0393L72.9234 32.5147C73.8405 32.8486 74.5982 34.0798 74.6031 35.2611L74.638 40.465L83.0469 37.0805L83.012 31.8767Z" fill="#FF4B01"/>
<path d="M5.96149 15.4726L6.28546 66.8828L2.2281 65.4074C1.31095 65.0735 0.558259 63.8373 0.54829 62.661L0.249231 15.5274C0.244247 14.3511 0.986943 13.6632 1.90409 13.9972L5.96149 15.4726Z" fill="#EBE9E9" stroke="#FF4B01" stroke-width="0.498451" stroke-linecap="round" stroke-linejoin="round"/>
<path d="M11.6388 10.2089L11.6737 15.4128C11.6787 16.5891 10.936 17.277 10.0189 16.943L5.96149 15.4676L5.9266 10.2638C5.92162 9.08742 6.66431 8.39956 7.58146 8.73352L11.6388 10.2089Z" fill="#EBE9E9" stroke="#FF4B01" stroke-width="0.498451" stroke-linecap="round" stroke-linejoin="round"/>
<path d="M67.1563 23.089C68.0734 23.423 68.8261 24.6542 68.8361 25.8355L68.871 31.0393L11.6388 10.209L11.604 5.00522C11.599 3.82888 12.3416 3.14101 13.2588 3.47498L67.1563 23.094V23.089Z" fill="#EBE9E9" stroke="#FF4B01" stroke-width="0.498451" stroke-linecap="round" stroke-linejoin="round"/>
<path d="M21.8321 79.8676C22.7493 80.2016 23.5019 81.4327 23.5119 82.6091L23.5468 87.8179L23.5917 95.1601L29.3139 97.2436L29.3488 102.447C29.3538 103.624 28.6111 104.312 27.6939 103.978L25.3014 103.105C24.3842 102.771 23.6415 103.459 23.6465 104.636L23.6664 107.706C23.6714 108.882 22.9287 109.57 22.0116 109.236L19.619 108.364C18.7019 108.03 17.9492 106.794 17.9392 105.618L17.8296 87.8578C17.8246 86.6814 17.067 85.4503 16.1498 85.1163L13.7572 84.244C12.8401 83.91 12.0874 82.6739 12.0774 81.4975L12.0425 76.2937L21.8222 79.8526L21.8321 79.8676Z" fill="#EBE9E9" stroke="#FF4B01" stroke-width="0.498451" stroke-linecap="round" stroke-linejoin="round"/>
<path d="M69.2847 97.1389L69.3196 102.343C69.3246 103.519 68.5819 104.207 67.6647 103.873L34.9913 91.9799L34.9564 86.7711C34.9514 85.5947 35.6891 84.9069 36.6112 85.2408L69.2847 97.1339V97.1389Z" fill="#EBE9E9" stroke="#FF4B01" stroke-width="0.498451" stroke-linecap="round" stroke-linejoin="round"/>
<path d="M74.962 91.8751L74.9969 97.0789C75.0019 98.2552 74.2592 98.9431 73.3421 98.6091L69.2847 97.1337L69.2498 91.9249C69.2448 90.7486 69.9825 90.0607 70.9046 90.3947L74.962 91.8701V91.8751Z" fill="#EBE9E9" stroke="#FF4B01" stroke-width="0.498451" stroke-linecap="round" stroke-linejoin="round"/>
<path d="M78.6955 41.9454C79.6126 42.2793 80.3653 43.5105 80.3752 44.6919L80.6743 91.8254C80.6793 93.0017 79.9366 93.6896 79.0195 93.3556L74.9621 91.8802L74.6381 40.47L78.6955 41.9454Z" fill="#EBE9E9" stroke="#FF4B01" stroke-width="0.498451" stroke-linecap="round" stroke-linejoin="round"/>
<path d="M72.9234 32.5196C73.8405 32.8536 74.5932 34.0847 74.6031 35.2661L74.638 40.4699L70.5806 38.9945C69.6635 38.6605 68.9108 37.4244 68.9009 36.248L68.866 31.0442L72.9234 32.5196Z" fill="#EBE9E9" stroke="#FF4B01" stroke-width="0.498451" stroke-linecap="round" stroke-linejoin="round"/>
<path d="M10.3429 68.3585C11.26 68.6924 12.0127 69.9236 12.0226 71.0999L12.0575 76.3088L8.00013 74.8333C7.08298 74.4994 6.33033 73.2632 6.32036 72.0869L6.28546 66.8831L10.3429 68.3585Z" fill="#EBE9E9" stroke="#FF4B01" stroke-width="0.498451" stroke-linecap="round" stroke-linejoin="round"/>
<path d="M20.4265 67.7152C20.4215 66.5388 19.6639 65.3077 18.7467 64.9737L14.6894 63.4983L6.28046 66.8828L10.3379 68.3582C11.255 68.6921 12.0077 69.9233 12.0176 71.0997L12.0525 76.3085L20.4614 72.924L20.4265 67.7152Z" fill="#FF4B01"/>
<path d="M40.2748 45.6289C40.2698 44.4525 39.5122 43.2164 38.595 42.8824L34.5376 41.407L26.1288 44.7915L30.1862 46.2669C31.1033 46.6008 31.861 47.832 31.866 49.0133L31.9009 54.2172L40.3097 50.8327L40.2748 45.6289Z" fill="#FF4B01"/>
<path d="M30.1862 46.272C31.1033 46.606 31.856 47.8372 31.866 49.0185L31.9009 54.2223L27.8435 52.7469C26.9263 52.413 26.1736 51.1768 26.1637 50.0005L26.1288 44.7966L30.1862 46.272Z" fill="#EBE9E9" stroke="#FF4B01" stroke-width="0.498451" stroke-linecap="round" stroke-linejoin="round"/>
<path d="M51.7193 49.7959C51.7143 48.6195 50.9567 47.3834 50.0395 47.0494L45.9821 45.574L37.5732 48.9585L41.6306 50.4339C42.5478 50.7678 43.3054 51.999 43.3104 53.1803L43.3453 58.3842L51.7542 54.9997L51.7193 49.7959Z" fill="#FF4B01"/>
<path d="M41.6356 50.439C42.5528 50.773 43.3055 52.0042 43.3154 53.1855L43.3503 58.3893L39.2929 56.9139C38.3758 56.58 37.6231 55.3438 37.6131 54.1675L37.5782 48.9636L41.6356 50.439Z" fill="#EBE9E9" stroke="#FF4B01" stroke-width="0.498451" stroke-linecap="round" stroke-linejoin="round"/>
<path d="M63.1687 53.9631C63.1637 52.7867 62.4061 51.5506 61.4889 51.2166L57.4315 49.7412L49.0226 53.1257L53.08 54.6011C53.9972 54.9351 54.7548 56.1662 54.7598 57.3476L54.7947 62.5514L63.2036 59.1669L63.1687 53.9631Z" fill="#FF4B01"/>
<path d="M53.08 54.6012C53.9972 54.9351 54.7499 56.1663 54.7598 57.3476L54.7947 62.5514L50.7373 61.076C49.8202 60.7421 49.0675 59.5059 49.0575 58.3296L49.0226 53.1257L53.08 54.6012Z" fill="#EBE9E9" stroke="#FF4B01" stroke-width="0.498451" stroke-linecap="round" stroke-linejoin="round"/>
</svg>
