<svg width="13" height="15" viewBox="0 0 13 15" fill="none" xmlns="http://www.w3.org/2000/svg">
<path d="M5.264 0.035379C5.40907 -0.0222943 5.57273 -0.00891433 5.70647 0.071559C8.5504 1.78249 11.1775 4.70416 12.038 7.52053C12.4719 8.94046 12.4703 10.3865 11.7473 11.6268C11.0249 12.8662 9.64073 13.7992 7.52347 14.3189C7.31127 14.371 7.0898 14.2793 6.9766 14.0923C6.8634 13.9055 6.88467 13.6667 7.0292 13.5027C7.89513 12.5201 8.66033 11.3719 8.77187 10.1624C8.8568 9.24173 8.56813 8.19847 7.45967 7.0886C7.46773 8.26973 7.0128 9.25333 6.55453 9.8158C6.43227 9.96586 6.2344 10.0319 6.04653 9.98526C5.85867 9.93866 5.7146 9.78786 5.6766 9.59807C5.4934 8.68207 4.973 8.2786 4.41873 7.99453C4.38115 8.775 4.04073 9.3368 3.79297 9.7456C3.72299 9.86113 3.6604 9.9644 3.61412 10.0569C2.87696 11.5313 3.7695 12.6013 4.38704 13.3416C4.43779 13.4025 4.48668 13.4611 4.53265 13.5175C4.67517 13.6924 4.68289 13.9411 4.55151 14.1245C4.42013 14.3079 4.1822 14.3806 3.97074 14.302C2.06147 13.5919 0.7111 12.2619 0.2111 10.639C-0.291987 9.0062 0.0937003 7.16667 1.48035 5.51216C1.92518 4.98141 2.31385 4.54116 2.65607 4.15351C3.85994 2.78987 4.48916 2.07715 4.96713 0.365512C5.00913 0.215166 5.11893 0.0930523 5.264 0.035379Z" fill="#FF4B01"/>
</svg>
