<svg width="108" height="129" viewBox="0 0 108 129" fill="none" xmlns="http://www.w3.org/2000/svg">
<path d="M41.9509 18.864L39.5553 16.6338C39.2428 16.3458 38.8997 16.2049 38.5505 16.1988L16.2795 15.7944C16.6226 15.8006 16.9718 15.9415 17.2843 16.2294L19.6799 18.4596C19.9924 18.7476 20.3355 18.8885 20.6847 18.8946L42.9557 19.299C42.6126 19.2928 42.2634 19.1519 41.9509 18.864Z" fill="#EBE9E9" stroke="#FF4B01" stroke-width="0.612682" stroke-linecap="round" stroke-linejoin="round"/>
<path d="M54.9582 6.75779L52.5626 4.5215C52.2562 4.23354 51.907 4.09263 51.57 4.0865L29.2991 3.68213C29.6422 3.68826 29.9853 3.82917 30.2916 4.11713L32.6872 6.35342C32.9935 6.64138 33.3428 6.7823 33.6859 6.78843L55.9568 7.1928C55.6137 7.1928 55.2707 7.04575 54.9582 6.75779Z" fill="#EBE9E9" stroke="#FF4B01" stroke-width="0.612682" stroke-linecap="round" stroke-linejoin="round"/>
<path d="M59.0018 120L36.7309 119.595C36.0569 119.583 35.3891 120.092 35.0031 121.011L33.4836 124.656C33.0976 125.581 32.4298 126.084 31.7559 126.071L54.0269 126.476C54.7008 126.488 55.3686 125.98 55.7546 125.061L57.2741 121.415C57.6601 120.49 58.3279 119.988 59.0018 120Z" fill="#FF4B01"/>
<path d="M74.0982 121.96L51.8273 121.556C51.1533 121.544 50.4855 122.052 50.0995 122.971L48.5801 126.617C48.1941 127.542 47.5262 128.044 46.8523 128.032L69.1233 128.436C69.7972 128.449 70.4651 127.94 70.8511 127.021L72.3705 123.376C72.7565 122.45 73.4243 121.948 74.0982 121.96Z" fill="#FF4B01"/>
<path d="M70.0545 8.7244L61.9181 1.14553C61.6118 0.857566 61.2625 0.716649 60.9194 0.710522L38.6484 0.306152C38.9915 0.312279 39.3346 0.453197 39.6471 0.741157L47.7835 8.32003C48.0899 8.60799 48.433 8.74891 48.7761 8.75503L71.0471 9.1594C70.7039 9.15328 70.3609 9.01236 70.0545 8.7244Z" fill="#EBE9E9" stroke="#FF4B01" stroke-width="0.612682" stroke-linecap="round" stroke-linejoin="round"/>
<path d="M87.0994 109.854L64.8284 109.449C64.1544 109.437 63.4866 109.946 63.1006 110.865L57.948 123.235C57.562 124.166 56.8881 124.675 56.2141 124.662L78.4851 125.067C79.159 125.079 79.8268 124.57 80.2189 123.639L85.3716 111.269C85.7576 110.344 86.4255 109.842 87.0994 109.854Z" fill="#FF4B01"/>
<path d="M82.7554 77.2221C83.6745 78.0737 83.944 79.9179 83.3681 81.3087L70.9491 111.128C70.367 112.531 69.1417 112.972 68.2226 112.12L65.827 109.884C64.908 109.033 63.6827 109.474 63.1068 110.864L57.9541 123.235C57.372 124.638 56.1406 125.079 55.2277 124.227L52.8321 121.991C51.9131 121.133 50.6816 121.574 50.1056 122.971L48.5862 126.617C48.0042 128.013 46.7788 128.455 45.8659 127.597L37.7356 120.024C36.8166 119.172 35.5912 119.614 35.0092 121.004L33.4897 124.65C32.9077 126.041 31.6823 126.488 30.7633 125.63L11.1636 107.372C10.2446 106.521 9.97499 104.676 10.5509 103.286L12.0704 99.6401C12.6524 98.2494 12.3767 96.4052 11.4577 95.5536L3.32127 87.9747C2.40225 87.1231 2.13267 85.2789 2.70859 83.8881L4.22803 80.2426C4.81008 78.8519 4.53437 77.0077 3.61535 76.1561L1.21978 73.9198C0.300758 73.0681 0.0311836 71.224 0.613231 69.8209L5.76587 57.4509C6.34792 56.0601 6.07221 54.2159 5.15319 53.3582L2.75762 51.128C1.83859 50.2702 1.56289 48.4261 2.14494 47.0292L14.564 17.2099C15.146 15.8192 16.3714 15.3719 17.2904 16.2296L19.686 18.4598C20.605 19.3176 21.8365 18.8764 22.4124 17.4795L27.5651 5.10947C28.1471 3.70643 29.3725 3.2653 30.2915 4.11693L32.6871 6.35322C33.6061 7.20484 34.8315 6.76371 35.4135 5.37293L36.933 1.72747C37.515 0.336683 38.7404 -0.110575 39.6533 0.747179L47.7897 8.32605C48.7087 9.17768 49.9341 8.73655 50.5162 7.33351L52.0295 3.69418C52.6115 2.29114 53.8369 1.85001 54.7559 2.70163L74.3556 20.9595C75.2746 21.8173 75.5503 23.6615 74.9683 25.0584L73.455 28.6977C72.8729 30.1008 73.1486 31.9388 74.0615 32.7966L82.1918 40.3693C83.1108 41.2209 83.3804 43.0651 82.8045 44.4559L81.2851 48.1014C80.703 49.4921 80.9787 51.3363 81.9038 52.1941L84.2994 54.4304C85.2184 55.282 85.488 57.1262 84.906 58.5292L79.7534 70.8992C79.1713 72.29 79.447 74.1342 80.366 74.9858L82.7616 77.2221H82.7554Z" fill="#EBE9E9" stroke="#FF4B01" stroke-width="0.612682" stroke-linecap="round" stroke-linejoin="round"/>
<path d="M46.2519 31.1055C47.1709 31.9572 47.4405 33.8013 46.8646 35.1921L44.2913 41.3741L40.6581 50.0926L38.0848 56.2745C37.5028 57.6775 36.2774 58.1187 35.3584 57.2671L32.9628 55.0308C32.0438 54.1791 31.7742 52.335 32.3563 50.9319L34.9295 44.75L38.5627 36.0315L41.136 29.8495C41.7181 28.4588 42.9434 28.0115 43.8624 28.8692L46.258 31.1055H46.2519Z" fill="#FF4B01"/>
<path d="M63.4498 47.1331C64.3688 47.9909 64.6445 49.835 64.0686 51.2258L61.4954 57.4078L57.8622 66.1262L55.2889 72.3082C54.7069 73.7112 53.4815 74.1524 52.5564 73.2946L50.1608 71.0645C49.2418 70.2067 48.9661 68.3625 49.5481 66.9656L52.1214 60.7837L55.7546 52.0652L58.3278 45.8832C58.9099 44.4924 60.1352 44.0452 61.0542 44.9029L63.4498 47.1331Z" fill="#FF4B01"/>
<path d="M25.9844 60.655C26.9034 61.5067 27.173 63.3509 26.591 64.7539L24.0177 70.9358L19.9556 67.1495C19.0366 66.2979 18.767 64.4537 19.3491 63.0506L20.8624 59.4113C21.4445 58.0083 22.6698 57.5671 23.5888 58.4188L25.9844 60.655Z" fill="#FF4B01"/>
<path d="M46.9565 92.3066L44.3832 98.4886C43.8012 99.8793 42.5758 100.327 41.6568 99.4689L37.5947 95.6825L31.86 90.3399L26.1253 84.9973L22.0632 81.2109C21.1442 80.3593 20.8746 78.5151 21.4505 77.1243L24.0238 70.9424L29.7585 76.285L35.4932 81.6276L41.2279 86.9701L46.9626 92.3127L46.9565 92.3066Z" fill="#FF4B01"/>
<path d="M54.6578 87.3682C55.5768 88.2198 55.8464 90.064 55.2644 91.467L53.751 95.1063C53.169 96.5094 51.9436 96.9505 51.0246 96.0989L46.9625 92.3125L49.5358 86.1305C50.1178 84.7275 51.3432 84.2864 52.2622 85.138L54.6578 87.3743V87.3682Z" fill="#FF4B01"/>
<path d="M105.639 81.7135C106.221 80.3227 105.945 78.4786 105.026 77.6269L102.631 75.3907C101.712 74.539 101.442 72.6949 102.018 71.3041L107.171 58.934C107.753 57.531 107.477 55.6929 106.564 54.8352L104.169 52.5989C103.25 51.7411 102.974 49.897 103.55 48.5062L105.069 44.8607C105.651 43.4699 105.376 41.6258 104.457 40.7741L96.3263 33.2014C95.4073 32.3498 95.1377 30.5056 95.7197 29.1026L97.2392 25.4632C97.8212 24.0602 97.5455 22.2221 96.6265 21.3644L77.0268 3.10646C76.7205 2.8185 76.3712 2.67759 76.0343 2.67146L53.7633 2.26709C54.1064 2.27322 54.4495 2.41413 54.7558 2.70209L74.3555 20.96C75.2746 21.8178 75.5503 23.6619 74.9682 25.0588L73.4488 28.6982C72.8667 30.1012 73.1424 31.9393 74.0553 32.797L82.1856 40.3698C83.1046 41.2214 83.3742 43.0656 82.7983 44.4564L81.2789 48.1018C80.6968 49.4926 80.9725 51.3368 81.8977 52.1945L84.2932 54.4308C85.2122 55.2824 85.4818 57.1266 84.8998 58.5297L79.7472 70.8997C79.1651 72.2905 79.4408 74.1347 80.3598 74.9863L82.7554 77.2226C83.6744 78.0742 83.944 79.9184 83.3681 81.3092L70.949 111.128C70.563 112.06 69.8891 112.568 69.2151 112.556L91.4861 112.96C92.16 112.973 92.8279 112.464 93.22 111.539L105.639 81.7197V81.7135Z" fill="#EBE9E9" stroke="#FF4B01" stroke-width="0.612682" stroke-linecap="round" stroke-linejoin="round"/>
<path d="M69.2152 112.555C69.8892 112.568 70.557 112.059 70.9491 111.128L83.3681 81.3086L105.639 81.713L93.2201 111.532C92.8341 112.463 92.1663 112.966 91.4862 112.954L69.2152 112.549V112.555Z" fill="#FF4B01"/>
<path d="M96.3325 33.2011C95.4135 32.3495 95.1439 30.5053 95.726 29.1023L97.2454 25.463L74.9744 25.0586L73.455 28.6979C72.8729 30.101 73.1486 31.939 74.0615 32.7968L96.3325 33.2011Z" fill="#FF4B01"/>
<path d="M104.169 52.6045C103.25 51.7467 102.974 49.9025 103.55 48.5117L105.069 44.8663L82.7983 44.4619L81.2789 48.1074C80.6969 49.4982 80.9726 51.3423 81.8977 52.2001L104.169 52.6045Z" fill="#FF4B01"/>
<path d="M102.631 75.3903C101.712 74.5387 101.442 72.6945 102.018 71.3037L107.171 58.9337L84.8998 58.5293L79.7472 70.8993C79.1651 72.2901 79.4409 74.1343 80.3599 74.9859L102.631 75.3903Z" fill="#FF4B01"/>
</svg>
