<svg width="36" height="35" viewBox="0 0 36 35" fill="none" xmlns="http://www.w3.org/2000/svg">
<path d="M4.11422 31.3349C2.73801 25.3274 1.38642 19.4654 0.0803613 13.6071C-0.0453478 13.1106 -0.0231782 12.5912 0.144304 12.1115C1.87404 8.17438 3.65378 4.25976 5.57168 -2.53228e-05L17.7802 0.810147L20.593 13.8349L33.5319 14.281L35.1732 28.4875C31.2498 30.5299 27.3091 32.6107 23.3094 34.5936C22.6058 34.8842 21.8255 34.9548 21.0727 34.796C15.4676 33.6918 9.89965 32.5245 4.11422 31.3349ZM21.412 20.2508L28.2213 18.2227L28.129 17.589L20.9334 16.8438L21.412 20.2508ZM6.93694 6.17468L13.5394 4.444L13.4546 3.67931L7.12389 2.92872C7.05134 4.10969 7.00941 4.85091 6.93064 6.18866L6.93694 6.17468Z" fill="#FF4B01"/>
</svg>
