<svg width="22" height="39" viewBox="0 0 22 39" fill="none" xmlns="http://www.w3.org/2000/svg">
<path d="M12.8959 19.4581C13.7124 18.1475 14.5255 16.8335 15.629 15.0735C17.9419 19.5602 19.1445 24.0809 21.1192 28.5063L12.7935 38.5655C8.95348 36.7749 5.27741 35.015 1.57404 33.3538C0.340728 32.7989 -0.0692661 31.9921 0.00931092 30.702C0.245042 26.7463 0.320233 22.7737 0.637957 18.8215C0.71995 17.7662 1.32121 16.6905 1.89175 15.7578C3.40862 13.2353 5.03488 10.7809 6.64058 8.26865L2.01477 0.439127L2.49303 0C5.84451 2.43737 9.24384 4.81685 12.5031 7.37336C13.019 7.77845 13.1044 8.98693 13.06 9.80733C12.9028 12.963 12.6124 16.1152 12.3767 19.2708L12.8959 19.4581ZM12.2708 34.375C12.9062 32.3325 13.4939 30.4194 14.0849 28.5165C12.4519 26.9642 10.6138 25.7932 9.61282 24.0911C8.69723 22.5524 8.6904 20.4793 8.16428 18.1134L5.43116 27.9105L12.2708 34.375Z" fill="#FF4B01"/>
</svg>
