<svg width="40" height="37" viewBox="0 0 40 37" fill="none" xmlns="http://www.w3.org/2000/svg">
<path d="M21.3156 36.9387L6.41474e-06 14.1342C1.70625 10.774 3.27603 7.32628 5.18873 4.08805C5.70602 3.21372 7.20058 2.66256 8.31384 2.48836C14.6696 1.59642 21.0508 0.897086 27.415 0.0693485C29.5148 -0.200772 31.108 0.280928 32.4572 2.1709C34.5275 5.03331 36.8512 7.6904 39.2886 10.7071L21.3156 36.9387ZM28.4337 5.88163C28.0364 7.64127 27.7865 10.1946 24.0157 10.3407C25.7748 11.1015 27.0165 11.3095 27.7098 12.0323C28.468 12.8352 28.7091 14.1402 29.57 16.0723C30.1537 12.7869 31.1493 10.7473 33.527 10.4116L28.4337 5.88163ZM10.4851 18.0659C10.6213 17.2937 10.904 16.695 10.7508 16.2529C10.5976 15.8109 9.99205 15.6097 9.58684 15.2972L8.53034 16.8346L10.4851 18.0659Z" fill="#FF4B01"/>
</svg>
