<svg width="20" height="20" viewBox="0 0 20 20" fill="none" xmlns="http://www.w3.org/2000/svg">
<path fill-rule="evenodd" clip-rule="evenodd" d="M10 1.04169C9.67317 1.04169 9.35008 1.14186 9.04658 1.25663C8.73808 1.37324 8.35525 1.5436 7.8878 1.75159C7.20121 2.05709 6.28108 2.41245 5.31007 2.68911C4.60097 2.89114 4.01393 3.05839 3.56618 3.23242C3.11557 3.40755 2.67168 3.63712 2.36752 4.04074C2.07466 4.42935 1.9683 4.87625 1.92057 5.3279C1.87496 5.75945 1.87498 6.29661 1.875 6.92777V9.33494C1.875 11.8897 3.02663 13.9102 4.40431 15.4061C5.77641 16.8959 7.46763 17.9382 8.53867 18.5048C8.98417 18.7411 9.39383 18.9584 10 18.9584C10.6062 18.9584 11.0158 18.7411 11.4613 18.5048C12.5323 17.9382 14.2236 16.8959 15.5957 15.4061C16.9734 13.9102 18.125 11.8897 18.125 9.33494V6.92779C18.125 6.29663 18.1251 5.75945 18.0794 5.3279C18.0317 4.87625 17.9253 4.42935 17.6325 4.04074C17.3283 3.63712 16.8844 3.40755 16.4338 3.23242C15.9861 3.05839 15.399 2.89114 14.6899 2.6891C13.7189 2.41245 12.7988 2.05707 12.1122 1.75158C11.6448 1.5436 11.2619 1.37324 10.9534 1.25663C10.6499 1.14186 10.3268 1.04169 10 1.04169ZM8.524 3.25059C9.02017 3.02983 9.36033 2.87881 9.62 2.78064C9.88967 2.6787 9.98233 2.67051 10 2.67051C10.0176 2.67051 10.1103 2.6787 10.3799 2.78064C10.6396 2.87881 10.9798 3.02983 11.4759 3.25059C12.2183 3.58088 13.1487 3.94333 14.2065 4.24473L14.5073 4.33061L5.12042 13.7424C4.17158 12.5425 3.49996 11.0805 3.49996 9.33494V6.97075C3.49996 6.2849 3.50103 5.83494 3.53648 5.49951C3.57083 5.17444 3.62865 5.06959 3.66413 5.0225C3.68831 4.99042 3.77978 4.89637 4.15363 4.75106C4.52215 4.60784 5.03534 4.46074 5.79345 4.24473C6.85128 3.94333 7.78169 3.58088 8.524 3.25059Z" fill="#4B5154"/>
</svg>
