<svg width="42" height="42" viewBox="0 0 42 42" fill="none" xmlns="http://www.w3.org/2000/svg">
<path d="M0.00713961 32.8928C0.00713961 31.8322 -0.0117142 30.7717 0.0118543 29.7111C0.0707756 27.135 2.06703 25.0893 4.64542 25.0021C6.21509 24.9502 7.7871 25.0021 9.35677 24.9832C12.4348 24.9432 14.4169 22.9587 14.4688 19.883C14.4782 19.2938 14.49 18.7022 14.4452 18.1177C14.2496 15.6642 12.3735 13.8141 9.92241 13.6751C9.0221 13.6232 8.11706 13.6704 7.21439 13.6397C4.44273 13.5407 2.42998 11.4973 2.38285 8.72568C2.35928 7.42941 2.34985 6.13314 2.38285 4.83687C2.45827 2.11235 4.47101 0.0948877 7.18375 0.026539C8.55779 -0.00881374 9.9342 -0.0111673 11.3059 0.0336129C13.8843 0.116103 15.89 2.11707 16.0031 4.70253C16.0455 5.64292 15.9842 6.58801 16.0361 7.5284C16.1728 10.0573 18.169 12.0088 20.7003 12.0936C21.7986 12.129 22.8992 12.0795 23.9975 12.1125C26.7928 12.195 28.789 14.2171 28.8385 16.9959C28.855 17.9763 28.8055 18.9615 28.8432 19.9396C28.9563 22.9752 30.9102 24.9007 33.9364 24.9832C34.6811 25.0021 35.4283 24.9691 36.1754 24.9927C38.841 25.0799 40.8443 27.0148 40.9739 29.6875C41.0399 31.0592 41.0352 32.438 40.9786 33.8096C40.8679 36.553 38.8881 38.5068 36.1447 38.5964C34.8508 38.6388 33.5522 38.6388 32.2583 38.5917C29.3028 38.4833 27.3749 36.4776 27.349 33.5362C27.3419 32.7891 27.3725 32.042 27.3443 31.2972C27.2429 28.6387 25.282 26.6189 22.6282 26.5058C21.6572 26.4657 20.6532 26.4845 19.7081 26.6849C17.6175 27.1303 16.1421 28.9145 16.0479 31.0427C15.9748 32.6901 16.0337 34.3399 16.0102 35.9897C15.9701 38.891 13.9479 40.9556 11.0419 41.0216C9.07866 41.0664 7.1154 41.0546 5.15215 41.0287C2.01989 40.9863 0.021282 38.9547 0.00478405 35.8342C7.03493e-05 34.8514 0.00478405 33.8709 0.00478405 32.8881L0.00713961 32.8928Z" fill="#FF4B01"/>
<path d="M35.5833 10.9102C32.0338 10.9008 30.1531 8.95641 30.1649 5.31036C30.1743 2.0037 32.2365 0.0710823 35.7341 0.0828665C39.0054 0.0946508 41.0064 2.16161 40.9946 5.51776C40.9852 8.92813 38.9866 10.9197 35.5833 10.9102Z" fill="#FF4B01"/>
</svg>
