<svg width="50" height="50" viewBox="0 0 50 50" fill="none" xmlns="http://www.w3.org/2000/svg">
<rect width="50" height="50" rx="25" fill="#0C100F"/>
<path d="M11.5375 16.8337C10.6303 17.3591 10.6265 18.2092 11.5292 18.7324L23.5001 25.6675C24.4028 26.1907 25.8687 26.1884 26.7769 25.6625L38.8075 18.6952C39.7147 18.1699 39.7185 17.3197 38.8158 16.7965L26.8449 9.86146C25.9422 9.33826 24.4753 9.3411 23.5681 9.86647L11.5375 16.8337Z" fill="black" stroke="black" stroke-width="0.108969" stroke-linecap="round" stroke-linejoin="round"/>
<path d="M27.8639 21.1738C27.9805 21.2628 28.0335 21.4749 27.9812 21.6444L27.7497 22.3958L27.2313 21.9997C27.1147 21.9107 27.0617 21.6987 27.1143 21.5276L27.3459 20.7762L27.8633 21.1729L27.8639 21.1738Z" fill="#FF4B01" stroke="#FF4B01" stroke-width="0.108969" stroke-linecap="round" stroke-linejoin="round"/>
<path d="M29.0244 21.5634C29.0767 21.3938 29.0237 21.1817 28.9071 21.0927L28.3897 20.6961L27.3465 20.7771L27.8639 21.1738C27.9806 21.2628 28.0336 21.4748 27.9813 21.6444L27.7497 22.3958L28.7929 22.3147L29.0244 21.5634Z" fill="#991DFF"/>
<path d="M28.3248 17.5958L27.3463 20.7771L26.8289 20.3805C26.7117 20.2905 26.6587 20.0785 26.7109 19.9089L27.5006 17.3442C27.5529 17.1747 27.6912 17.1086 27.8089 17.1995L28.3263 17.5961L28.3248 17.5958Z" fill="#FF4B01" stroke="#FF4B01" stroke-width="0.108969" stroke-linecap="round" stroke-linejoin="round"/>
<path d="M28.3249 17.5958L29.3675 17.5138L28.3889 20.6951L27.3458 20.7762L28.3249 17.5958Z" fill="#991DFF"/>
<path d="M28.85 17.1171C28.81 17.0864 28.7686 17.0743 28.7282 17.0769L27.6851 17.1579C27.7249 17.1545 27.7669 17.1674 27.8068 17.1982L28.3242 17.5948L29.3674 17.5138L28.85 17.1171Z" fill="#991DFF"/>
<path d="M28.3251 17.5958L28.5566 16.8445C28.6084 16.674 28.7472 16.6088 28.8638 16.6978L29.3812 17.0945L29.1493 17.8474C29.097 18.0169 28.9582 18.0821 28.8416 17.9931L28.3241 17.5964L28.3251 17.5958Z" fill="#FF4B01" stroke="#FF4B01" stroke-width="0.108969" stroke-linecap="round" stroke-linejoin="round"/>
<path d="M29.3813 17.0945L30.4245 17.0134L30.2443 17.7721C30.2262 17.8502 30.1459 17.9198 30.0663 17.9267L29.0005 18.0251C29.0005 18.0251 29.099 18.0158 29.1509 17.8477L29.3819 17.0954L29.3813 17.0945Z" fill="#991DFF"/>
<path d="M29.9065 16.6157C29.8672 16.5859 29.8251 16.573 29.7853 16.5764L28.7422 16.6575C28.782 16.654 28.824 16.667 28.8634 16.6968L29.3808 17.0935L30.424 17.0124L29.9065 16.6157Z" fill="#991DFF"/>
<path d="M31.6859 17.5508C31.803 17.6408 31.8561 17.8528 31.8038 18.0224L31.5722 18.7737L29.3812 17.0945L29.6128 16.3431C29.6651 16.1736 29.8039 16.1084 29.9211 16.1984L31.6864 17.5518L31.6859 17.5508Z" fill="#FF4B01" stroke="#FF4B01" stroke-width="0.108969" stroke-linecap="round" stroke-linejoin="round"/>
<path d="M32.847 17.9398C32.8993 17.7702 32.8463 17.5582 32.7291 17.4682L30.9637 16.1148C30.9238 16.0841 30.8823 16.0721 30.842 16.0746L29.7988 16.1557C29.8386 16.1522 29.8807 16.1652 29.9206 16.1959L31.686 17.5493C31.8031 17.6392 31.8562 17.8513 31.8039 18.0208L31.5723 18.7722L32.6154 18.6911L32.847 17.9398Z" fill="#991DFF"/>
<path d="M29.9412 24.076L29.7093 24.8288C29.657 24.9984 29.5187 25.0645 29.401 24.9736L27.6356 23.6202C27.5185 23.5303 27.4654 23.3183 27.5177 23.1487L27.7493 22.3973L29.9412 24.076Z" fill="#FF4B01" stroke="#FF4B01" stroke-width="0.108969" stroke-linecap="round" stroke-linejoin="round"/>
<path d="M30.9837 23.994L29.9406 24.075L29.7086 24.8279C29.674 24.9399 29.6023 25.0069 29.5231 25.0123L30.5662 24.9313C30.6449 24.9249 30.7172 24.8589 30.7518 24.7468L30.9837 23.994Z" fill="#991DFF"/>
<path d="M27.749 22.3973L28.7922 22.3162L30.9835 23.994L29.9409 24.076L27.749 22.3973Z" fill="#991DFF"/>
<path d="M32.0904 19.1698C32.207 19.2588 32.26 19.4708 32.2074 19.6419L31.9758 20.3932L31.4584 19.9966C31.3418 19.9076 31.2887 19.6955 31.341 19.526L31.573 18.7731L32.0904 19.1698Z" fill="#FF4B01" stroke="#FF4B01" stroke-width="0.108969" stroke-linecap="round" stroke-linejoin="round"/>
<path d="M33.2506 19.5608C33.3023 19.3903 33.2502 19.1777 33.1336 19.0887L32.6162 18.692L31.573 18.7731L32.0905 19.1698C32.2071 19.2588 32.2601 19.4708 32.2074 19.6419L31.9759 20.3932L33.019 20.3122L33.2506 19.5608Z" fill="#991DFF"/>
<path d="M30.3589 23.1387L31.402 23.0576C31.4418 23.0541 31.4839 23.0671 31.5232 23.0969L30.4801 23.178C30.4407 23.1482 30.3987 23.1352 30.3589 23.1387Z" fill="#991DFF"/>
<path d="M30.9975 23.5746L30.766 24.3259C30.7142 24.4965 30.5755 24.5616 30.4588 24.4726L29.9414 24.0759L30.1733 23.3231C30.2256 23.1535 30.3644 23.0884 30.4811 23.1774L30.9985 23.574L30.9975 23.5746Z" fill="#FF4B01" stroke="#FF4B01" stroke-width="0.108969" stroke-linecap="round" stroke-linejoin="round"/>
<path d="M32.0404 23.4935L30.9972 23.5746L30.7657 24.326C30.7307 24.4395 30.6584 24.5055 30.5797 24.5119L31.6228 24.4308C31.7015 24.4245 31.7747 24.3579 31.8088 24.2449L32.0404 23.4935Z" fill="#991DFF"/>
<path d="M30.48 23.178L31.5231 23.0969L32.0405 23.4936L30.9974 23.5746L30.48 23.178Z" fill="#991DFF"/>
<path d="M32.4937 20.7908C32.6103 20.8798 32.6634 21.0918 32.6111 21.2614L31.8214 23.8261C31.7691 23.9957 31.6309 24.0617 31.5137 23.9718L30.9963 23.5751L31.9748 20.3938L32.4922 20.7904L32.4937 20.7908Z" fill="#FF4B01" stroke="#FF4B01" stroke-width="0.108969" stroke-linecap="round" stroke-linejoin="round"/>
<path d="M33.6542 21.1804C33.7065 21.0108 33.6534 20.7988 33.5368 20.7098L33.0194 20.3131L31.9762 20.3942L32.4937 20.7908C32.6103 20.8798 32.6633 21.0919 32.611 21.2614L31.8213 23.8261C31.7867 23.9382 31.7141 24.0057 31.6348 24.0111L32.678 23.93C32.7567 23.9237 32.8299 23.8571 32.8645 23.745L33.6542 21.1804Z" fill="#991DFF"/>
<path d="M25.4037 9.47584C24.748 9.44481 24.0716 9.57464 23.5681 9.86647L11.5375 16.8337C10.6303 17.3591 10.6265 18.2092 11.5292 18.7324L18.3195 22.6655L25.4037 9.47584Z" fill="#991DFF"/>
<path d="M11.5302 18.7319L23.5011 25.667C24.4038 26.1902 25.8697 26.1879 26.7779 25.662L38.8085 18.6947C39.2652 18.4308 39.4924 18.0844 39.4914 17.7385L39.5232 33.4622C39.5242 33.8081 39.297 34.1545 38.8403 34.4184L26.8096 41.3856C25.9024 41.911 24.435 41.9129 23.5329 41.3906L11.562 34.4555C11.1134 34.1954 10.8885 33.8551 10.887 33.5146L10.8552 17.7909C10.8573 18.1323 11.0812 18.4733 11.5302 18.7319Z" fill="#FF4B01"/>
<path d="M25.2178 41.7805C24.6094 41.7884 23.9977 41.6588 23.5344 41.391L11.562 34.4555C11.1134 34.1954 10.8885 33.8551 10.887 33.5146L10.8552 17.7909C10.8573 18.1323 11.0812 18.4733 11.5302 18.7319L23.5011 25.667C23.967 25.937 24.5821 26.0659 25.1942 26.0557L25.2172 41.7795L25.2178 41.7805Z" fill="#EBE9E9"/>
<path d="M11.5302 18.7319L23.5011 25.667C24.4038 26.1902 25.8697 26.1879 26.7779 25.662L38.8085 18.6947C39.2652 18.4308 39.4924 18.0844 39.4914 17.7385L39.5232 33.4622C39.5242 33.8081 39.297 34.1545 38.8403 34.4184L26.8096 41.3856C25.9024 41.911 24.435 41.9129 23.5329 41.3906L11.562 34.4555C11.1134 34.1954 10.8885 33.8551 10.887 33.5146L10.8552 17.7909C10.8573 18.1323 11.0812 18.4733 11.5302 18.7319Z" stroke="black" stroke-width="0.108969" stroke-linecap="round" stroke-linejoin="round"/>
<path d="M38.8169 16.796L26.846 9.86097C25.9433 9.33776 24.4765 9.34061 23.5692 9.86598L11.5386 16.8332C10.6314 17.3586 10.6276 18.2087 11.5313 18.7313L23.5022 25.6664C24.4049 26.1896 25.8708 26.1873 26.779 25.6614L38.8096 18.6942C39.7168 18.1688 39.7206 17.3187 38.8179 16.7955L38.8169 16.796ZM37.4798 18.1189L25.785 24.8919C25.4304 25.0973 24.8504 25.0973 24.4968 24.8921L12.8662 18.1549C12.5117 17.9503 12.5115 17.6141 12.866 17.4087L24.5608 10.6357C24.9153 10.4303 25.4954 10.4303 25.8489 10.6355L37.4796 17.3727C37.834 17.5773 37.8343 17.9135 37.4798 18.1189Z" fill="#EBE9E9" stroke="black" stroke-width="0.108969" stroke-linecap="round" stroke-linejoin="round"/>
<path d="M26.9984 9.85457C28.5958 8.42328 29.7556 8.02756 29.5883 8.97153C29.4205 9.91456 27.9886 11.8397 26.3913 13.271C24.793 14.7029 23.6332 15.0986 23.8005 14.1546C23.9678 13.2107 25.3996 11.2855 26.9984 9.85457Z" fill="#EBE9E9" stroke="black" stroke-width="0.108969" stroke-linecap="round" stroke-linejoin="round"/>
<path d="M29.51 8.53464L30.3179 9.28584C30.4041 9.36637 30.433 9.51033 30.3961 9.72274C30.2282 10.6658 28.7964 12.591 27.1991 14.0222C25.9593 15.1321 24.9838 15.6195 24.6864 15.3427L23.8786 14.5915C24.1759 14.8683 25.1515 14.3809 26.3912 13.271C27.9886 11.8398 29.4204 9.91458 29.5882 8.97154C29.6256 8.76007 29.5962 8.61518 29.51 8.53464Z" fill="#991DFF" stroke="black" stroke-width="0.108969" stroke-linecap="round" stroke-linejoin="round"/>
<path d="M25.1958 14.206C24.5482 14.6284 24.0706 14.7702 23.8779 14.5921L24.6858 15.3433C24.8749 15.5197 25.3413 15.3846 25.9749 14.977L25.1964 14.2069L25.1958 14.206Z" fill="black"/>
<path d="M31.1037 6.71198L30.5635 8.00266L31.8542 8.54285L32.3943 7.25218L31.1037 6.71198Z" fill="black"/>
<path d="M33.9305 4.69789L32.5576 4.42801L32.2877 5.8009L33.6606 6.07078L33.9305 4.69789Z" fill="#991DFF"/>
<path d="M22.5213 15.4782L21.1484 15.2083L20.8786 16.5812L22.2514 16.8511L22.5213 15.4782Z" fill="#FF4B01"/>
<path d="M20.2482 8.34403L18.8599 8.51743L19.0333 9.9058L20.4216 9.73241L20.2482 8.34403Z" fill="#991DFF"/>
<path d="M29.8867 34.9294C29.8761 34.7101 29.8621 34.4927 29.8557 34.271C29.8405 33.7324 30.1793 33.1055 30.6426 32.824C30.9247 32.6529 31.2082 32.503 31.4906 32.3388C32.0444 32.016 32.3813 31.4032 32.3598 30.762C32.3556 30.6392 32.3518 30.5157 32.3379 30.3994C32.2781 29.9121 31.9218 29.7212 31.4791 29.9429C31.3165 30.0242 31.154 30.1264 30.9912 30.2123C30.4912 30.475 30.1084 30.2582 30.0721 29.6899C30.0549 29.4243 30.0402 29.1573 30.0331 28.8859C30.0194 28.3149 30.3615 27.6921 30.8492 27.4008C31.0962 27.2531 31.344 27.112 31.5914 26.9811C32.0564 26.7347 32.4375 26.9435 32.4838 27.4665C32.5009 27.6566 32.4993 27.8583 32.5181 28.0474C32.5681 28.5563 32.947 28.7558 33.4036 28.5148C33.6017 28.4099 33.7993 28.2872 33.9974 28.1818C34.5014 27.9133 34.8811 28.1274 34.9178 28.6969C34.9306 28.8979 34.9316 29.1066 34.9482 29.305C34.999 29.9211 35.3701 30.1196 35.9157 29.8275C36.05 29.7553 36.1841 29.6721 36.3189 29.6007C36.7996 29.3463 37.1797 29.5417 37.2298 30.0811C37.2554 30.358 37.2684 30.6435 37.272 30.9329C37.2796 31.5114 36.9427 32.1177 36.4497 32.4165C36.2172 32.5574 35.9834 32.6901 35.75 32.8126C35.2169 33.0921 34.8497 32.8744 34.8155 32.2689C34.8068 32.1152 34.8048 31.9575 34.7922 31.8065C34.7473 31.2671 34.374 31.0499 33.8951 31.2976C33.7199 31.3885 33.5394 31.495 33.3712 31.633C32.9993 31.9387 32.7516 32.4583 32.756 32.908C32.7593 33.2561 32.7865 33.5911 32.7988 33.9347C32.8207 34.5386 32.4773 35.1721 31.9548 35.4826C31.6018 35.6925 31.2483 35.8906 30.8946 36.0859C30.3302 36.3971 29.9501 36.1813 29.9158 35.5378C29.9051 35.335 29.8961 35.1318 29.8863 34.9286L29.8867 34.9294Z" fill="black"/>
<path d="M36.0711 26.7495C35.432 27.1102 35.0739 26.9003 35.0395 26.1453C35.008 25.4607 35.3599 24.8504 35.9897 24.4955C36.5787 24.1637 36.9597 24.3866 36.9912 25.0817C37.0237 25.7878 36.6839 26.4037 36.0711 26.7495Z" fill="black"/>
<path d="M14.3467 31.7113L13.8222 31.4625C13.7358 31.4215 13.6945 31.3533 13.6983 31.2577L13.8606 27.1564C13.8644 27.0609 13.9095 27.0336 13.9958 27.0746L15.9642 28.0083C16.0465 28.0473 16.0857 28.1146 16.082 28.2101L16.0636 28.6742C16.0598 28.7697 16.0168 28.798 15.9345 28.7589L14.6943 28.1706C14.6449 28.1472 14.6192 28.1605 14.6172 28.2106L14.5754 29.2683C14.5732 29.3229 14.5968 29.3619 14.6462 29.3853L15.7013 29.8858C15.7877 29.9268 15.829 29.9951 15.8252 30.0906L15.8072 30.5478C15.8032 30.6479 15.758 30.6775 15.6716 30.6365L14.6165 30.136C14.5671 30.1125 14.5415 30.1259 14.5395 30.1759L14.482 31.6294C14.4782 31.725 14.4331 31.7523 14.3467 31.7113ZM18.304 29.1182L18.8223 29.364C18.9128 29.407 18.9563 29.4739 18.9527 29.5649L18.8285 32.704C18.8144 33.0589 18.7131 33.2912 18.5243 33.401C18.3399 33.5081 18.0872 33.4856 17.7664 33.3334L17.0876 33.0114C16.7626 32.8573 16.5155 32.6427 16.3461 32.3677C16.1768 32.0927 16.0993 31.7756 16.1135 31.4161L16.2374 28.2839C16.2412 28.1883 16.2863 28.1611 16.3727 28.202L16.8972 28.4508C16.9835 28.4918 17.0248 28.5601 17.0211 28.6556L16.8988 31.7469C16.893 31.8925 16.9156 32.0098 16.9666 32.0989C17.0218 32.1854 17.1132 32.2588 17.2407 32.3193L17.6665 32.5213C17.7981 32.5837 17.8918 32.5981 17.9477 32.5643C18.0078 32.5279 18.0407 32.4369 18.0465 32.2914L18.1688 29.2C18.1726 29.1045 18.2176 29.0772 18.304 29.1182ZM19.8246 34.3098L19.3125 34.0668C19.2261 34.0258 19.1848 33.9576 19.1886 33.862L19.3508 29.7607C19.3546 29.6652 19.3997 29.6379 19.4861 29.6789L19.9489 29.8984C20.0353 29.9394 20.0916 29.9986 20.1179 30.0759L21.262 33.2535L21.2867 33.2652L21.3871 30.7266C21.3909 30.6311 21.436 30.6038 21.5223 30.6448L22.0345 30.8877C22.1209 30.9287 22.1622 30.997 22.1584 31.0925L21.9961 35.1938C21.9924 35.2894 21.9473 35.3166 21.8609 35.2757L21.4104 35.062C21.3199 35.0191 21.2559 34.9423 21.2184 34.8318L20.0847 31.7079L20.0601 31.6962L19.9599 34.2279C19.9561 34.3235 19.911 34.3507 19.8246 34.3098Z" fill="black"/>
<path d="M14.2678 26.7556L14.6059 26.9159C14.6723 26.9474 14.7201 26.9554 14.7494 26.9398C14.7808 26.923 14.7979 26.8801 14.8006 26.8111L14.8083 26.6175C14.811 26.5485 14.7979 26.4924 14.7688 26.4492C14.7398 26.4059 14.6911 26.3681 14.6227 26.3356L14.2907 26.1781C14.2685 26.1676 14.257 26.1746 14.256 26.1991L14.2361 26.7031C14.2351 26.7276 14.2457 26.7451 14.2678 26.7556ZM14.3043 25.8343L14.6121 25.9804C14.6765 26.0109 14.7244 26.0189 14.7557 26.0043C14.7871 25.9874 14.8042 25.9445 14.8069 25.8755L14.8121 25.7454C14.8148 25.6764 14.8016 25.6203 14.7726 25.577C14.7457 25.5325 14.7 25.495 14.6356 25.4644L14.3248 25.317C14.3026 25.3065 14.2911 25.3135 14.2901 25.3379L14.2725 25.7819C14.2716 25.8063 14.2821 25.8238 14.3043 25.8343ZM13.8401 26.8417L13.9195 24.8357C13.9213 24.7889 13.9434 24.7756 13.9856 24.7956L14.71 25.1392C14.8689 25.2146 14.9898 25.3196 15.0727 25.4541C15.1555 25.5886 15.1935 25.7426 15.1866 25.9162L15.1812 26.0531C15.1737 26.2422 15.0894 26.3269 14.9282 26.3071C15.0082 26.3587 15.0711 26.4259 15.117 26.5089C15.163 26.5897 15.1839 26.6846 15.1795 26.7936L15.1716 26.9939C15.1648 27.1674 15.1162 27.2804 15.026 27.3329C14.9358 27.3853 14.8122 27.3743 14.6552 27.2998L13.9007 26.9419C13.8585 26.9219 13.8382 26.8885 13.8401 26.8417ZM16.3867 28.1212L15.3938 27.6501C15.3515 27.6301 15.3313 27.5967 15.3331 27.55L15.4125 25.5439C15.4144 25.4972 15.4364 25.4838 15.4787 25.5039L15.7352 25.6256C15.7775 25.6456 15.7977 25.679 15.7958 25.7257L15.7298 27.3947C15.7288 27.4191 15.7404 27.4371 15.7646 27.4486L16.4014 27.7507C16.4416 27.7697 16.4608 27.8038 16.4588 27.8527L16.4499 28.0797C16.448 28.1264 16.427 28.1402 16.3867 28.1212ZM17.0478 28.0607L17.2621 28.1623C17.3265 28.1929 17.3723 28.1999 17.3996 28.1834C17.429 28.1656 17.4451 28.1211 17.4479 28.0499L17.4882 27.0318C17.491 26.9606 17.4789 26.9038 17.4519 26.8616C17.427 26.818 17.3823 26.7809 17.318 26.7504L17.1037 26.6488C17.0393 26.6182 16.9934 26.6123 16.966 26.6311C16.9387 26.6476 16.9236 26.6914 16.9208 26.7627L16.8805 27.7807C16.8777 27.8519 16.8888 27.9093 16.9137 27.9529C16.9387 27.9942 16.9834 28.0301 17.0478 28.0607ZM17.3109 28.5596L16.9729 28.3992C16.814 28.3238 16.6931 28.2189 16.6102 28.0844C16.5274 27.9499 16.4895 27.7947 16.4964 27.6189L16.5383 26.5608C16.5453 26.385 16.5938 26.2709 16.6841 26.2185C16.7743 26.1661 16.8989 26.1775 17.0578 26.253L17.3959 26.4133C17.5548 26.4887 17.6757 26.5937 17.7585 26.7282C17.8414 26.8627 17.8793 27.0178 17.8723 27.1936L17.8305 28.2517C17.8235 28.4275 17.7749 28.5416 17.6847 28.594C17.5945 28.6465 17.4699 28.635 17.3109 28.5596ZM18.7861 29.2593L18.4571 29.1033C18.2982 29.0279 18.1773 28.9229 18.0944 28.7884C18.0116 28.6539 17.9737 28.4987 17.9806 28.3229L18.0225 27.2648C18.0295 27.089 18.078 26.9749 18.1683 26.9225C18.2585 26.8701 18.3831 26.8816 18.542 26.957L18.871 27.113C19.028 27.1875 19.1478 27.2931 19.2305 27.4298C19.3154 27.5653 19.3543 27.7198 19.3475 27.8933L19.3413 28.0502C19.3393 28.0992 19.3162 28.1132 19.272 28.0922L19.0184 27.9719C18.9762 27.9519 18.956 27.9174 18.958 27.8684L18.9634 27.7315C18.9662 27.6603 18.9541 27.6036 18.9271 27.5613C18.9021 27.5177 18.8575 27.4807 18.7931 27.4501L18.5879 27.3528C18.5255 27.3232 18.4796 27.3173 18.4502 27.3351C18.4229 27.3516 18.4078 27.3955 18.405 27.4667L18.3647 28.4847C18.3619 28.556 18.373 28.6133 18.3979 28.6569C18.4249 28.6992 18.4696 28.7351 18.532 28.7647L18.7372 28.8621C18.8016 28.8926 18.8475 28.8996 18.8748 28.8831C18.9042 28.8653 18.9203 28.8208 18.9231 28.7496L18.9285 28.6128C18.9304 28.5638 18.9525 28.5493 18.9948 28.5694L19.2483 28.6896C19.2926 28.7106 19.3138 28.7456 19.3118 28.7946L19.3056 28.9515C19.2987 29.125 19.2492 29.2387 19.1568 29.2923C19.0666 29.3448 18.943 29.3338 18.7861 29.2593ZM19.7522 29.7176L19.4956 29.5959C19.4534 29.5758 19.4332 29.5424 19.435 29.4957L19.5144 27.4896C19.5162 27.4429 19.5383 27.4296 19.5805 27.4496L19.8371 27.5713C19.8793 27.5913 19.8995 27.6247 19.8977 27.6715L19.86 28.6228L19.8661 28.6256C19.8843 28.5799 19.9182 28.5257 19.9678 28.4631L20.456 27.9363C20.4841 27.902 20.5242 27.8972 20.5765 27.9221L20.8723 28.0624C20.8944 28.0729 20.9072 28.0869 20.9106 28.1043C20.9161 28.1206 20.9104 28.136 20.8934 28.1506L20.2852 28.7564L20.8812 30.1681C20.8943 30.2015 20.8954 30.2236 20.8848 30.2344C20.8762 30.2439 20.8578 30.242 20.8296 30.2287L20.6093 30.1242C20.5389 30.0908 20.4925 30.045 20.4702 29.9868L20.0408 28.9499L19.8409 29.1068L19.8183 29.6775C19.8165 29.7243 19.7944 29.7376 19.7522 29.7176ZM20.9075 29.7079L20.9101 29.6412C20.912 29.5944 20.934 29.5811 20.9763 29.6011L21.2328 29.7228C21.2751 29.7429 21.2953 29.7762 21.2934 29.823L21.2924 29.8497C21.289 29.9342 21.3018 29.9993 21.3308 30.0447C21.3597 30.0902 21.4144 30.132 21.4949 30.1702L21.6368 30.2375C21.7153 30.2747 21.7702 30.2838 21.8017 30.2647C21.8353 30.2466 21.8538 30.192 21.8574 30.1007L21.859 30.0607C21.8616 29.9961 21.8394 29.9357 21.7924 29.8794C21.7475 29.8219 21.69 29.7731 21.6199 29.733C21.5497 29.6929 21.4737 29.6444 21.3919 29.5875C21.3122 29.5292 21.2377 29.469 21.1685 29.4066C21.0993 29.3421 21.0423 29.255 20.9974 29.1453C20.9546 29.0343 20.936 28.9098 20.9414 28.7719L20.9461 28.655C20.9529 28.4815 21.0025 28.3678 21.0949 28.3142C21.1872 28.2605 21.3118 28.2708 21.4687 28.3453L21.7706 28.4885C21.9295 28.5639 22.0514 28.6704 22.1361 28.8081C22.2209 28.9458 22.2598 29.1014 22.2529 29.275L22.2504 29.3384C22.2486 29.3851 22.2265 29.3985 22.1843 29.3784L21.9277 29.2567C21.8855 29.2367 21.8653 29.2033 21.8671 29.1566L21.8679 29.1365C21.8713 29.0497 21.8586 28.9836 21.8296 28.9381C21.8007 28.8927 21.746 28.8509 21.6655 28.8127L21.5478 28.7568C21.4653 28.7177 21.4082 28.7088 21.3766 28.7301C21.3472 28.7501 21.3304 28.8102 21.3265 28.9103L21.324 28.9737C21.3198 29.0783 21.3999 29.1775 21.5643 29.2714C21.7347 29.3681 21.8851 29.478 22.0156 29.601C22.0847 29.6678 22.1406 29.7556 22.1835 29.8643C22.2284 29.9718 22.2483 30.0923 22.243 30.2258L22.2385 30.3393C22.2316 30.5129 22.182 30.6265 22.0897 30.6802C21.9974 30.7339 21.8728 30.7235 21.7158 30.649L21.3868 30.493C21.2299 30.4185 21.1091 30.3125 21.0243 30.1748C20.9396 30.0371 20.9006 29.8815 20.9075 29.7079Z" fill="black"/>
</svg>
