<svg width="30" height="25" viewBox="0 0 30 25" fill="none" xmlns="http://www.w3.org/2000/svg">
<path d="M3.75678 2.19097C3.57265 2.16238 3.52221 1.92113 3.68652 1.83325C6.75418 0.192408 10.6432 0.506475 13.434 2.916L16.7118 5.74598C19.6001 8.23977 20.4386 12.2244 19.0727 15.5724C19.0023 15.745 18.7568 15.7198 18.7091 15.5396C17.8789 12.4005 15.8773 9.18625 12.8657 6.58599C10.0402 4.1465 6.80978 2.66508 3.75678 2.19097Z" fill="#0C100F"/>
<path d="M12.448 5.14404C12.5944 4.9804 12.8463 4.96807 13.0079 5.11662L15.0526 6.99599C15.2064 7.13732 15.223 7.37413 15.0905 7.53557L3.88793 21.1862C3.74756 21.3572 3.49383 21.379 3.32635 21.2344L0.657366 18.93C0.490771 18.7862 0.474469 18.5337 0.621184 18.3696L12.448 5.14404Z" fill="#0C100F"/>
<rect x="14.4674" y="2.90967" width="3.41146" height="2.88617" rx="0.39367" transform="rotate(40.8074 14.4674 2.90967)" fill="#0C100F"/>
<path d="M15.0205 15.5671C15.1085 15.5809 15.1752 15.6538 15.1811 15.7427L15.2223 16.364C15.2524 16.8175 15.541 17.2132 15.9637 17.3805L16.5426 17.6096C16.6254 17.6424 16.6745 17.7282 16.6607 17.8162C16.6469 17.9042 16.574 17.9709 16.4851 17.9768L15.8638 18.0181C15.4103 18.0482 15.0146 18.3367 14.8473 18.7594L14.6182 19.3384C14.5854 19.4212 14.4996 19.4702 14.4116 19.4565C14.3236 19.4427 14.2569 19.3698 14.251 19.2809L14.2098 18.6596C14.1797 18.206 13.8911 17.8103 13.4684 17.6431L12.8895 17.4139C12.8066 17.3812 12.7576 17.2954 12.7714 17.2074C12.7851 17.1194 12.8581 17.0527 12.9469 17.0468L13.5682 17.0055C14.0218 16.9754 14.4175 16.6868 14.5848 16.2642L14.8139 15.6852C14.8467 15.6024 14.9325 15.5534 15.0205 15.5671Z" fill="#0C100F"/>
<path d="M25.2581 3.62205C25.4341 3.6496 25.5675 3.79545 25.5793 3.9732L25.6618 5.21574C25.722 6.12287 26.2991 6.91427 27.1445 7.24882L28.3024 7.70707C28.468 7.77264 28.5661 7.94423 28.5386 8.12024C28.511 8.29624 28.3652 8.42966 28.1874 8.44145L26.9449 8.52392C26.0377 8.58413 25.2463 9.16128 24.9118 10.0066L24.4536 11.1645C24.388 11.3302 24.2164 11.4283 24.0404 11.4007C23.8644 11.3732 23.731 11.2273 23.7191 11.0495L23.6367 9.80699C23.5765 8.89987 22.9993 8.10848 22.154 7.77393L20.9961 7.31567C20.8305 7.25012 20.7324 7.07852 20.7599 6.90251C20.7875 6.72651 20.9333 6.5931 21.1111 6.5813L22.3536 6.49883C23.2607 6.43862 24.0521 5.86146 24.3867 5.01612L24.8449 3.85823C24.9105 3.69259 25.0821 3.59449 25.2581 3.62205Z" fill="#0C100F"/>
</svg>
