<svg width="24" height="24" viewBox="0 0 24 24" fill="none" xmlns="http://www.w3.org/2000/svg">
<path d="M14.5939 16.2718C14.7703 16.2497 14.986 16.2499 15.1616 16.25H15.75V4C15.75 3.44772 16.1977 3 16.75 3C17.3023 3 17.75 3.44772 17.75 4V16.25H18.3384C18.514 16.2499 18.7297 16.2497 18.9061 16.2718L18.9095 16.2722C19.0359 16.288 19.612 16.3598 19.8863 16.9254C20.1613 17.4922 19.8593 17.9924 19.794 18.1006L19.4549 18.5691C19.1602 18.9449 18.7546 19.4593 18.3741 19.8503C18.1843 20.0454 17.967 20.2467 17.7361 20.4055C17.5309 20.5467 17.1807 20.75 16.75 20.75C16.3193 20.75 15.9691 20.5467 15.7639 20.4055C15.533 20.2467 15.3157 20.0454 15.1259 19.8503C14.7454 19.4593 14.3397 18.9449 14.0451 18.569L13.706 18.1006C13.6407 17.9924 13.3387 17.4922 13.6137 16.9254C13.888 16.3598 14.4641 16.288 14.5905 16.2722L14.5939 16.2718Z" fill="#9497A4"/>
<path d="M5.59389 7.4782C5.77029 7.5003 5.98599 7.5001 6.16159 7.5H6.74999V19.75C6.74999 20.3023 7.19769 20.75 7.74999 20.75C8.30229 20.75 8.74999 20.3023 8.74999 19.75V7.5H9.33839C9.51399 7.5001 9.72969 7.5003 9.90609 7.4782L9.90949 7.4778C10.0359 7.462 10.612 7.3902 10.8863 6.8246C11.1613 6.2578 10.8593 5.7576 10.794 5.6494L10.4549 5.1809C10.1602 4.8051 9.75459 4.2907 9.37409 3.8997C9.18429 3.7046 8.96699 3.5033 8.73609 3.3445C8.53089 3.2033 8.18069 3 7.74999 3C7.31929 3 6.96909 3.2033 6.76389 3.3445C6.53299 3.5033 6.31569 3.7046 6.12589 3.8997C5.74539 4.2907 5.33969 4.8051 5.04509 5.181L4.70599 5.6494C4.64069 5.7576 4.33869 6.2578 4.61369 6.8246C4.88799 7.3902 5.46409 7.462 5.59049 7.4778L5.59389 7.4782Z" fill="#9497A4"/>
</svg>
