<svg width="36" height="36" viewBox="0 0 36 36" fill="none" xmlns="http://www.w3.org/2000/svg">
<path fill-rule="evenodd" clip-rule="evenodd" d="M18.75 4.875C15.2292 4.875 12.375 7.72919 12.375 11.25C12.375 14.7708 15.2292 17.625 18.75 17.625C22.2708 17.625 25.125 14.7708 25.125 11.25C25.125 7.72919 22.2708 4.875 18.75 4.875ZM18.75 19.875C15.9321 19.875 13.2914 20.4546 11.0679 21.4683C8.85059 22.479 7.87501 24.8014 7.87501 26.9556C7.87493 27.6048 7.87486 28.3116 7.93996 28.7958C8.01166 29.3291 8.18031 29.8926 8.64386 30.3561C9.10739 30.8197 9.67099 30.9883 10.2042 31.06C10.6884 31.1251 11.2836 31.1252 11.9328 31.125H25.5672C26.2164 31.1252 26.8116 31.1251 27.2958 31.06C27.8291 30.9883 28.3926 30.8197 28.8561 30.3561C29.3198 29.8926 29.4884 29.3291 29.5601 28.7958C29.6252 28.3116 29.6252 27.6048 29.625 26.9556C29.625 24.8014 28.6494 22.479 26.4321 21.4683C24.2087 20.4546 21.5679 19.875 18.75 19.875Z" fill="#E5E9EC"/>
</svg>
